<svg width="738" height="711" viewBox="0 0 738 711" fill="none" xmlns="http://www.w3.org/2000/svg">
<g clip-path="url(#clip0_144967_14999)">
<path d="M196.226 0.858926C199.449 0.151426 219.717 0.465927 223.917 0.475427C245.69 0.394927 267.462 0.505424 289.233 0.806924L448.83 0.894922C450.11 6.56542 457.045 22.5134 459.67 27.9619C460.95 28.5819 460.3 28.4224 461.675 28.2829L461.99 28.5704C460.245 30.4589 462.535 34.0514 463.015 36.4794C472.1 38.1029 478.5 39.0364 487.805 38.0889C491.235 37.7394 496.965 36.6819 499.91 36.5024C500.545 39.1854 506.185 51.8159 507.71 54.5564C514.06 53.7019 520.45 51.8809 527.935 50.9334C532.565 50.9399 534.795 51.1194 539.335 51.6184C543.01 52.2134 559.09 54.3794 561.32 56.4454L561.09 56.9174L561.485 57.2174C566.45 57.1874 572.55 56.3339 577.725 56.2714C584.475 56.1904 592.25 52.1884 598.51 49.5894L599.88 48.5794L599.825 47.7434C598.245 46.7329 595.825 46.6844 593.88 46.4574L593.7 46.1709C596.81 45.9364 599.25 45.5199 601.145 48.3894L602.1 48.2104L602.245 47.9424L601.545 48.9844L601.245 48.5029L601.83 48.8704C603.425 45.9894 604.08 44.4229 603.195 41.2839C606.45 40.5769 613 37.2669 615.26 37.6279C622.49 38.7809 622.405 37.3589 626.24 31.3139C627.75 30.7129 628.54 30.1579 629.935 29.3339L630.055 28.3544C633.185 26.3024 638.7 23.5469 642.14 21.6934L635.88 22.6849C636.98 19.7329 637.38 20.1639 636.655 17.7794C642.2 19.7804 648.945 23.3844 654.135 26.2864C683.65 42.6614 707.25 67.9289 721.58 98.4924C738.105 133.64 737.66 165.525 737.575 203.198L737.565 269.341L737.56 366.319C737.555 380.024 738.235 400.704 737.515 413.929C737.65 422.864 737.645 431.799 737.5 440.734C737.62 454.509 737.635 468.284 737.54 482.059L737.575 507.719C737.59 513.909 737.705 520.429 737.57 526.589C737.395 537.604 737.02 548.174 735.85 559.089C728.925 623.779 685.27 677.339 623.885 698.604C585.895 711.769 546.395 710.579 506.595 710.549L408.61 710.564L311.299 710.514L226.495 710.549C163.157 710.549 107.926 710.009 57.4097 664.734C30.2067 640.459 11.8152 607.854 5.11219 572.014C3.04419 561.039 2.15319 549.564 1.54819 538.434C0.650695 533.599 1.07819 507.064 1.06919 500.639L1.02569 413.134L1.05569 251.567C1.08019 223.214 0.814187 195.025 1.59019 166.674C3.20269 107.791 32.9437 54.4264 85.5757 26.1339L86.6247 25.6474C94.2982 21.2844 101.611 17.5179 110.037 14.7969C118.804 10.5119 140.944 5.70193 150.95 4.31793C162.022 2.48993 183.813 0.950929 195.383 1.06193L196.226 0.858926Z" fill="#091424"/>
<path d="M710.175 536.779C717.495 532.824 729.225 526.769 737.57 526.589C737.395 537.604 737.02 548.174 735.85 559.089C728.925 623.779 685.27 677.339 623.885 698.604C585.895 711.769 546.395 710.579 506.595 710.549L408.61 710.564L311.299 710.514L226.495 710.549C163.157 710.549 107.926 710.009 57.4097 664.734C30.2067 640.459 11.8152 607.854 5.11221 572.014C3.04421 561.039 2.15322 549.564 1.54822 538.434C12.7772 543.374 32.3657 556.859 41.4057 565.009C44.3732 568.214 47.4002 570.699 50.7027 573.519L51.9792 575.519C54.8187 580.369 59.8232 586.329 63.2097 591.564C65.4462 596.394 72.5567 604.074 76.7542 607.454C79.7207 610.659 80.8792 612.539 85.2137 614.409C85.9597 614.734 88.9417 615.759 89.3367 615.989C100.451 616.614 109.761 618.159 116.881 607.614C120.376 608.694 150.676 602.904 156.503 603.864C157.31 603.999 162.726 603.784 163.692 603.629L164.343 602.139C164.841 611.464 170.224 612.944 178.353 613.004C194.541 613.119 210.727 613.124 226.916 613.144L322.6 613.159L376.295 613.134C386.025 613.124 396.285 613.449 405.95 612.754C414.245 612.154 415.135 603.239 414.905 596.999C472.09 596.829 529.87 598.269 586.605 605.709C592.51 606.484 600.005 607.614 605.57 609.714C606.995 610.254 606.905 612.409 606.8 613.614C626.95 600.989 651.45 594.914 675 593.489C678.665 587.649 680.805 580.329 682.84 573.759C684.595 568.069 686.21 564.344 689 559.089C691.51 555.209 693.425 552.194 696.38 548.599L701.23 543.509C704.325 540.979 706.9 539.084 710.175 536.779Z" fill="#0067C0"/>
<path d="M710.175 536.779C717.495 532.824 729.225 526.769 737.57 526.589C737.395 537.604 737.02 548.174 735.85 559.089C728.925 623.779 685.27 677.339 623.885 698.604C585.895 711.769 546.395 710.579 506.595 710.549L408.61 710.564C415.33 701.819 419.02 698.869 427.565 692.019C443.635 681.124 455.615 676.669 474.14 671.884C482.345 651.814 503.455 642.169 523.995 640.219C539.04 638.794 564.215 639.434 577.835 645.994C583.63 633.089 592.345 624.029 603.62 615.649C604.79 615.079 605.72 614.354 606.8 613.614C626.95 600.989 651.45 594.914 675 593.489C678.665 587.649 680.805 580.329 682.84 573.759C684.595 568.069 686.21 564.344 689 559.089C691.51 555.209 693.425 552.194 696.38 548.599L701.23 543.509C704.325 540.979 706.9 539.084 710.175 536.779Z" fill="#002655"/>
<path d="M540.945 657.739C565.89 658.724 558.05 668.729 541.97 676.679C532.91 681.159 525.27 679.054 516.4 675.649C514.29 676.914 512.02 678.424 509.925 679.759C500.505 684.579 491.495 678.389 495.155 668.989C496.315 666.044 498.625 663.694 501.545 662.474C506.395 660.409 510.27 661.734 514.73 663.514C526.195 660.459 527.435 658.314 540.945 657.739Z" fill="#07529E"/>
<path d="M640.915 616.104C653.04 615.384 651.835 624.539 646.105 632.019C639.975 640.014 628.855 641.889 619.44 643.029C599.84 643.019 612.03 631.084 620.395 625.339C626.695 621.009 633.38 617.624 640.915 616.104Z" fill="#07529E"/>
<path d="M666.39 607.119C671.29 606.534 675.675 607.844 677.635 612.859C678.59 615.279 678.46 617.994 677.275 620.309C675.585 623.659 672.81 624.944 669.43 626.034C655 626.404 652.94 612.844 666.39 607.119Z" fill="#07529E"/>
<path d="M649.87 637.589C665.13 637.304 660.73 653.099 644.795 655.374C626.445 653.859 639.11 641.214 649.87 637.589Z" fill="#002655"/>
<path d="M707.68 589.084C719.89 587.769 717.3 601.729 703.965 603.184C700.64 602.949 697.47 602.409 695.65 599.374C694.56 593.199 703.115 590.404 707.68 589.084Z" fill="#002655"/>
<path d="M577.335 654.919C580.73 654.739 589.55 654.884 590.235 659.204C589.67 660.754 588.91 661.104 587.585 662.109C583.575 662.959 575.82 662.354 574.91 657.509C575.775 655.684 575.51 656.249 577.335 654.919Z" fill="#07529E"/>
<path d="M1.54822 538.434C12.7772 543.374 32.3657 556.859 41.4057 565.009C44.3732 568.214 47.4002 570.699 50.7027 573.519L51.9792 575.519C54.8187 580.369 59.8232 586.329 63.2097 591.564C65.4462 596.394 72.5567 604.074 76.7542 607.454C79.7207 610.659 80.8792 612.539 85.2137 614.409C85.9597 614.734 88.9417 615.759 89.3367 615.989C90.8522 617.244 95.9452 618.424 98.3942 619.264C114.485 624.759 130.447 632.564 138.186 648.714C164.993 642.879 196.563 643.984 220.243 659.189C224.006 661.644 227.549 664.419 230.832 667.479C258.292 671.429 292.994 689.664 311.299 710.514L226.495 710.549C163.157 710.549 107.926 710.009 57.4097 664.734C30.2067 640.459 11.8152 607.854 5.11221 572.014C3.04421 561.039 2.15322 549.564 1.54822 538.434Z" fill="#002655"/>
<path d="M163.746 659.574C177.135 658.594 193.355 660.609 203.13 671.479C207.253 676.064 203.657 679.669 199.219 681.874C197.647 682.289 195.219 682.784 193.578 682.919C185.764 683.624 177.994 681.164 172.008 676.094C169.541 673.999 159.498 663.909 159.25 661.109C160.517 660.064 162.089 659.934 163.746 659.574Z" fill="#07529E"/>
<path d="M49.7257 604.129C61.7062 603.079 68.5642 617.619 54.2367 623.269C40.1792 622.714 35.9012 609.589 49.7257 604.129Z" fill="#07529E"/>
<path d="M69.9807 629.574C74.8812 629.359 79.9157 631.699 81.6182 636.559C82.4207 638.799 82.2217 641.279 81.0717 643.359C79.3482 646.474 76.5997 647.564 73.3587 648.409C68.4147 648.654 63.1557 646.294 61.4782 641.344C60.7267 639.179 60.9372 636.799 62.0577 634.799C63.7897 631.674 66.7207 630.469 69.9807 629.574Z" fill="#07529E"/>
<path d="M222.184 680.524C232.803 679.999 246.966 690.674 232.95 697.184C220.075 699.704 207.971 687.039 222.184 680.524Z" fill="#07529E"/>
<path d="M93.1162 639.884C99.4527 639.424 122.491 646.774 116.379 654.699C104.526 658.254 93.0172 653.464 93.1162 639.884Z" fill="#07529E"/>
<path d="M128.611 666.469C131.895 666.549 136.65 667.829 137.394 671.524C136.84 673.479 137.035 672.854 135.405 674.454C131.498 674.634 126.882 673.804 126.199 669.274C127.028 667.284 126.704 667.934 128.611 666.469Z" fill="#07529E"/>
<path d="M477.67 627.609C485.095 627.734 496.5 626.699 504.305 626.209C528.985 624.469 553.625 622.209 578.21 619.429C584.075 618.709 589.92 617.879 595.755 616.939C598.285 616.534 601.195 615.789 603.62 615.649C592.345 624.029 583.63 633.089 577.835 645.994C564.215 639.434 539.04 638.794 523.995 640.219C503.455 642.169 482.345 651.814 474.14 671.884C455.615 676.669 443.635 681.124 427.565 692.019C423.34 689.704 416.035 688.014 411.265 686.909C388.415 681.624 355.857 680.419 332.932 685.669C338.662 682.059 344.945 678.539 350.521 674.704C351.951 673.719 351.703 673.694 351.808 672.444C350.539 670.684 345.091 668.499 342.915 667.954C324.927 663.444 306.4 666.244 288.478 669.504C282.993 670.504 276.466 672.099 270.969 672.309L270.237 672.334C274.763 668.479 281.396 665.284 285.286 661.424C275.152 651.139 252.344 644.964 238.145 642.829C234.639 642.304 224.62 641.874 222.049 640.259C222.243 638.119 226.133 635.079 227.842 633.529C224.487 631.169 222.662 630.114 219.01 628.199C225.841 627.769 243.531 629.114 251.612 629.409C270.664 630.129 289.726 630.564 308.792 630.714C317.923 630.814 328.665 631.194 337.646 630.784L339.62 631.049C344.644 630.789 348.838 630.834 353.833 630.929L355.141 630.989C360.655 630.879 366.58 630.639 372.05 630.934L373.49 630.739C378.05 631.144 390.775 630.599 395.935 630.519L402.825 630.469L410.165 630.114L414.97 629.994L416.305 629.909L417.935 630.049L419.665 629.859L421.705 630.074L426.885 629.884C436.02 629.554 444.72 628.909 453.92 628.949L456.425 628.739L460.655 628.429L461.465 628.574L464.885 628.359L466.555 628.184L473.665 627.949L475.775 627.994L477.67 627.609Z" fill="#17C7F3"/>
<path d="M417.935 630.049L419.665 629.859L421.705 630.074C421.315 633.739 421.045 637.579 421.655 641.239C421.595 643.979 421.325 649.619 421.545 652.114L422.09 652.914L421.74 653.854C414.69 651.719 409.07 651.009 402.67 655.439L401.73 652.939C402.225 647.274 401.55 634.834 402.825 630.469L410.165 630.114L414.97 629.994L416.305 629.909L417.935 630.049Z" fill="#17C7F3"/>
<path d="M410.165 630.114L414.97 629.994C413.395 633.994 414.47 645.734 414.365 650.854L413.665 651.439C412.21 651.039 412.52 650.959 411.345 649.634C408.905 650.764 411.935 650.094 409.815 651.734C408.645 649.874 408.9 633.829 409.195 630.874L410.165 630.114Z" fill="#85F1F8"/>
<path d="M410.865 630.769C411.445 631.044 411.08 630.839 411.855 631.544C412.26 635.204 412.065 639.914 412.01 643.689C409.79 641.519 410.735 634.054 410.865 630.769Z" fill="#17C7F3"/>
<path d="M419.665 629.859L421.705 630.074C421.315 633.739 421.045 637.579 421.655 641.239C421.595 643.979 421.325 649.619 421.545 652.114C421.5 652.309 421.56 652.174 421.16 652.544C419.885 646.189 419.47 636.369 419.665 629.859Z" fill="#85F1F8"/>
<path d="M416.305 629.909L417.935 630.049C417.6 636.334 417.67 642.829 417.35 649.289L416.97 649.239L417.18 650.454L417.235 649.849C416.425 648.909 416.175 631.929 416.305 629.909Z" fill="#57E2F8"/>
<path d="M458.45 645.039C460.59 645.394 461.955 645.549 464.005 646.294C481.675 654.904 460.95 666.689 450.14 659.994C438.735 652.934 446.485 647.179 455.895 645.079L456.99 645.294L458.45 645.039Z" fill="#017FD1"/>
<path d="M402.67 655.439C409.07 651.009 414.69 651.719 421.74 653.854C424.805 655.299 436.43 660.899 432.255 665.394C427.3 670.724 398.1 665.084 402.67 655.439Z" fill="#017FD1"/>
<path d="M461.465 628.574L464.885 628.359C464.91 631.794 465.975 643.874 464.73 645.829L464.005 646.294C461.955 645.549 460.59 645.394 458.45 645.039L456.99 645.294L455.895 645.079C456.015 643.734 455.74 641.344 455.615 639.899C453.85 637.599 456.875 632.849 453.92 628.949L456.425 628.739L460.655 628.429L461.465 628.574Z" fill="#17C7F3"/>
<path d="M453.92 628.949L456.425 628.739L458.06 629.324C459.22 632.829 458.625 641.024 458.45 645.039L456.99 645.294L455.895 645.079C456.015 643.734 455.74 641.344 455.615 639.899C453.85 637.599 456.875 632.849 453.92 628.949Z" fill="#85F1F8"/>
<path d="M455.615 639.899C455.615 636.549 455.51 633.549 456.07 630.239C456.835 632.609 457.1 642.409 456.99 645.294L455.895 645.079C456.015 643.734 455.74 641.344 455.615 639.899Z" fill="#17C7F3"/>
<path d="M460.655 628.429L461.465 628.574C461.55 631.219 462.32 643.419 461.135 644.914C459.78 642.959 459.405 630.334 460.655 628.429Z" fill="#85F1F8"/>
<path d="M466.555 628.184L473.665 627.949C473.8 631.149 474.115 634.644 473.64 637.769L473.565 637.449C473.22 639.659 472.785 644.534 471.66 646.114C468.96 645.394 469.655 640.064 469.67 637.724C469.66 635.419 469.94 631.119 468.34 629.504C468.21 632.079 468.27 643.689 467.96 644.954C466.145 640.439 466.155 633.014 466.555 628.184Z" fill="#85F1F8"/>
<path d="M469.67 637.724L470.48 636.014C471.965 636.934 471.655 644.124 471.66 646.114C468.96 645.394 469.655 640.064 469.67 637.724Z" fill="#17C7F3"/>
<path d="M395.935 630.519L402.825 630.469C401.55 634.834 402.225 647.274 401.73 652.939C401.575 653.424 401.495 654.849 401.445 655.434L401.025 655.709C400.315 650.984 400.98 634.139 399.765 631.259L398.98 631.489C399.115 633.154 399.3 634.194 398.79 635.834C398.36 634.989 397.525 632.414 397.1 631.319C396.445 632.494 396.6 634.144 396.57 635.564C396.24 634.109 396.095 632.054 395.935 630.519Z" fill="#85F1F8"/>
<path d="M337.646 630.784L339.62 631.049C339.739 636.474 339.232 647.584 338.636 652.959C337.275 646.054 337.671 637.909 337.646 630.784Z" fill="#17C7F3"/>
<path d="M421.705 630.074L426.885 629.884C426.865 633.054 426.9 636.184 426.61 639.344C426.415 636.914 426.345 631.994 424.885 630.274C421.095 631.164 424.15 641.679 422.895 645.159C422.16 643.784 422.005 642.739 421.655 641.239C421.045 637.579 421.315 633.739 421.705 630.074Z" fill="#17C7F3"/>
<path d="M475.775 627.994L477.67 627.609C478.49 633.464 477.385 640.329 476.385 646.189C475.345 640.999 475.565 633.314 475.775 627.994Z" fill="#85F1F8"/>
<path d="M396.57 635.564C396.6 634.144 396.445 632.494 397.1 631.319C397.525 632.414 398.36 634.989 398.79 635.834C398.7 639.364 398.7 643.234 398.265 646.709C397.67 645.399 396.885 637.704 396.57 635.564Z" fill="#85F1F8"/>
<path d="M353.833 630.929L355.141 630.989C355.1 633.534 355.47 643.739 355.108 645.064C354.273 643.944 354.521 641.629 354.402 639.834C353.628 641.674 354.8 647.164 353.895 649.054C353.415 645.384 353.773 635.049 353.833 630.929Z" fill="#17C7F3"/>
<path d="M372.05 630.934L373.49 630.739C373.61 636.024 373.57 639.924 373.335 645.204C373.155 643.759 372.96 642.314 372.745 640.874L372.74 641.284C371.795 637.689 372.015 634.644 372.05 630.934Z" fill="#85F1F8"/>
<path d="M389.9 631.159C391.62 631.079 393.535 630.769 395.005 631.374C394.925 637.489 394.725 643.604 394.395 649.709C393.975 648.584 394.04 648.114 393.94 646.909C392.425 643.584 393.09 635.994 392.705 631.679C392.47 633.334 392.365 634.869 391.78 636.419C391.55 634.214 390.88 634.004 390.215 632.074L389.9 631.159Z" fill="#85F1F8"/>
<path d="M431.15 630.119C432.905 630.199 435.06 630.149 436.855 630.164C436.6 631.964 436.26 633.819 435.955 635.619C435.985 633.509 435.955 632.959 435.63 630.884L434.775 630.414L433.49 630.809L432.975 632.154C432.855 636.299 432.72 638.994 432.17 643.084C430.84 640.884 431.105 632.994 431.15 630.119Z" fill="#85F1F8"/>
<path d="M291.172 630.609L292.086 631.059C292.614 632.664 292.033 639.079 291.928 641.184C289.788 639.289 290.873 633.279 291.172 630.609Z" fill="#85F1F8"/>
<path d="M156.316 624.689C157.891 625.034 169.646 625.524 172.32 625.679L169.486 628.559C167.071 630.144 165.176 630.664 162.478 631.589C158.297 630.034 155.306 629.614 156.316 624.689Z" fill="#17C7F3"/>
<path d="M110.037 14.7969C118.804 10.5119 140.944 5.70193 150.95 4.31793C156.717 9.55693 172.355 15.3064 179.55 19.2899C187.331 22.3329 200.226 26.5794 208.232 28.7394L210.737 29.2694C215.933 30.2509 223.873 31.4459 229.196 30.8984C248.568 26.8389 250.729 32.0584 268.246 33.9389L269.552 34.8664C269.93 37.4574 267.152 47.2319 264.753 48.3009C266.072 48.5404 267.668 48.4744 268.445 48.6979C266.905 49.0859 266.645 48.7964 266.19 49.7669C265.046 52.2019 264.797 55.3789 264.007 58.0809L263.73 58.2259C262.471 62.4629 258.181 76.1979 257.888 79.7024L258.086 79.9044C257.273 82.6229 257.125 84.8294 256.422 87.2274L255.508 87.3034C256.066 88.6139 253.213 96.1249 251.638 96.8709L250.4 96.7044C244.726 94.3054 239.596 94.2509 233.837 92.3169C230.804 92.3684 229.802 91.3864 227.016 92.3629C224.775 92.4254 212.138 91.1019 208.478 90.9524C195.699 91.9839 189.217 92.9804 177.168 97.9094C173.385 100.107 163.451 106.721 173.539 108.848C173.622 114.012 170.96 127.618 172.573 131.178C174.037 131.904 174.776 131.737 176.405 131.693C161.733 136.766 149.232 148.055 140.243 160.453C111.385 200.256 123.808 267.557 169.855 288.843C175.602 291.499 180.859 293.163 187.015 294.56C190.428 303.423 196.273 310.086 203.691 315.907C190.561 323.599 181.692 332.583 177.802 347.772C176.999 350.972 176.392 354.218 175.984 357.492L157.389 357.343L96.0462 357.468C85.1267 357.468 74.0147 357.098 63.1522 358.002C54.1937 358.747 51.7852 365.989 51.9792 373.849C52.0427 375.964 52.1332 378.074 52.2502 380.184C56.3212 385.104 61.8972 389.734 66.3767 394.439C69.9192 397.799 73.7537 401.304 77.1807 404.744L77.5232 435.739C58.3922 436.149 59.9632 439.609 59.4977 457.769C59.2522 467.339 60.1412 478.384 59.6267 487.744L59.4007 487.659C56.5927 494.009 50.1092 502.904 44.4962 507.119C43.7162 510.974 47.5172 509.159 44.1737 514.969C49.6332 511.469 52.6297 504.904 61.0092 505.009C59.2562 511.799 60.8347 523.029 59.7702 526.364C51.3137 535.484 50.0637 546.729 50.2227 558.724C50.2852 563.434 52.1527 572.209 51.9792 575.519L50.7027 573.519C47.4002 570.699 44.3732 568.214 41.4057 565.009C32.3657 556.859 12.7772 543.374 1.54819 538.434C0.650695 533.599 1.07819 507.064 1.06919 500.639L1.02569 413.134L1.05569 251.567C1.08019 223.214 0.814187 195.025 1.59019 166.674C3.20269 107.791 32.9437 54.4264 85.5757 26.1339L86.6247 25.6474C94.2982 21.2844 101.611 17.5179 110.037 14.7969Z" fill="#017FD1"/>
<path d="M110.037 14.7969C118.804 10.5119 140.944 5.70193 150.95 4.31793C156.717 9.55693 172.355 15.3064 179.55 19.2899C187.331 22.3329 200.226 26.5794 208.232 28.7394L210.737 29.2694C215.933 30.2509 223.873 31.4459 229.196 30.8984C248.568 26.8389 250.729 32.0584 268.246 33.9389L269.552 34.8664C269.93 37.4574 267.152 47.2319 264.753 48.3009C266.072 48.5404 267.668 48.4744 268.445 48.6979C266.905 49.0859 266.645 48.7964 266.19 49.7669C265.046 52.2019 264.797 55.3789 264.007 58.0809L263.73 58.2259C262.471 62.4629 258.181 76.1979 257.888 79.7024L258.086 79.9044C257.273 82.6229 257.125 84.8294 256.422 87.2274L255.508 87.3034C256.066 88.6139 253.213 96.1249 251.638 96.8709L250.4 96.7044C244.726 94.3054 239.596 94.2509 233.837 92.3169C230.804 92.3684 229.802 91.3864 227.016 92.3629C224.775 92.4254 212.138 91.1019 208.478 90.9524C195.699 91.9839 189.217 92.9804 177.168 97.9094C173.385 100.107 163.451 106.721 173.539 108.848C173.622 114.012 170.96 127.618 172.573 131.178C174.037 131.904 174.776 131.737 176.405 131.693C161.733 136.766 149.232 148.055 140.243 160.453C111.385 200.256 123.808 267.557 169.855 288.843C175.602 291.499 180.859 293.163 187.015 294.56C190.428 303.423 196.273 310.086 203.691 315.907C190.561 323.599 181.692 332.583 177.802 347.772C176.999 350.972 176.392 354.218 175.984 357.492L157.389 357.343C151.205 357.122 118.521 357.131 116.291 355.717L116.262 354.96C117.128 353.31 121.226 349.422 121.269 348.871C121.613 344.436 123.067 340.286 123.018 335.933C123.179 336.055 123.341 336.177 123.503 336.299C127.648 337.389 131.893 343.356 133.653 347.079C134.259 348.362 133.705 347.784 134.857 349.079L135.434 348.305C135.235 342.737 130.367 333.507 128.865 328.253C128.322 326.334 128.055 324.347 128.072 322.353C128.13 318.507 130.501 311.228 129.9 308.77C128.616 308.68 128.62 308.778 127.568 308.083C122.707 296.9 110.136 273.794 110.412 262.407C109.563 262.015 109.933 262.274 109.29 261.646C109.928 258.035 111.272 254.969 111.507 251.518C111.834 246.699 108.052 242.118 106.971 238.239C105.737 233.816 104.869 227.748 103.966 223.177C103.878 222.58 101.685 218.77 101.908 218.244C104.012 213.287 108.345 205.214 103.654 200.508C103.714 192.906 100.135 185.734 94.0237 181.212C95.8707 179.811 93.8867 182.096 96.3652 180.624C97.4727 178.096 97.2467 174.332 97.6977 171.499C99.5312 159.982 99.8237 148.133 101.721 136.668C102.716 130.652 112.05 129.074 109.712 121.121C109.268 123.619 108.487 124.598 106.39 125.865C109.672 121.164 110.618 115.219 108.957 109.732C107.296 104.245 103.211 99.8224 97.8732 97.7314C99.8572 95.6244 99.5567 97.3169 101.168 95.3549C101.728 92.2249 102.178 88.2779 101.436 85.1524L99.4737 84.5879C101.814 84.3514 125.471 79.5894 125.911 79.2679L125.669 78.9304C123.715 79.0429 119.649 77.4884 118.286 76.4929C119.6 76.2724 121.705 77.6814 123.913 77.9094L123.382 77.1534C118.171 74.1964 110.521 74.7214 104.835 74.5069C105.578 66.2449 101.585 58.4819 103.912 50.3454C105.551 44.6139 105.863 40.9544 108.744 35.8019C107.103 33.2784 102.642 33.6414 99.6342 31.2489C96.7357 29.4309 89.3917 28.2099 85.5757 26.1339L86.6247 25.6474C94.2982 21.2844 101.611 17.5179 110.037 14.7969Z" fill="#17C7F3"/>
<path d="M229.196 30.8984C248.568 26.8389 250.729 32.0584 268.246 33.9389L269.552 34.8664C269.93 37.4574 267.152 47.2319 264.753 48.3009C266.072 48.5404 267.668 48.4744 268.445 48.6979C266.905 49.0859 266.645 48.7964 266.19 49.7669C265.046 52.2019 264.797 55.3789 264.007 58.0809L263.73 58.2259C262.471 62.4629 258.181 76.1979 257.888 79.7024L258.086 79.9044C257.273 82.6229 257.125 84.8294 256.422 87.2274L255.508 87.3034C256.066 88.6139 253.213 96.1249 251.638 96.8709L250.4 96.7044C244.726 94.3054 239.596 94.2509 233.837 92.3169C230.804 92.3684 229.802 91.3864 227.016 92.3629C224.775 92.4254 212.138 91.1019 208.478 90.9524C206.777 90.2564 205.493 90.3669 203.658 90.3099L203.406 89.6864C202.816 86.8289 213.177 66.4604 215.143 61.8414C218.13 61.0459 223.442 60.5799 226.702 60.1999C223.594 59.1074 220.459 58.0944 217.299 57.1614C218.434 54.8169 223.206 44.0129 224.3 42.7274L225.184 41.7149L224.881 41.1909C226.705 36.9234 227.823 35.6334 229.196 30.8984Z" fill="#57E2F8"/>
<path d="M229.196 30.8984C248.568 26.8389 250.729 32.0584 268.246 33.9389L269.552 34.8664C269.93 37.4574 267.152 47.2319 264.753 48.3009C252.674 46.2489 236.527 44.5174 225.184 41.7149L224.881 41.1909C226.705 36.9234 227.823 35.6334 229.196 30.8984Z" fill="#57E2F8"/>
<path d="M221.978 82.8069C233.738 74.5824 245.031 74.3334 257.888 79.7024L258.086 79.9044C257.273 82.6229 257.125 84.8294 256.422 87.2274L255.508 87.3034C242.725 92.3109 233.508 88.2814 221.978 82.8069Z" fill="#85F1F8"/>
<path d="M225.184 41.7149C236.527 44.5174 252.674 46.2489 264.753 48.3009C266.072 48.5404 267.668 48.4744 268.445 48.6979C266.905 49.0859 266.645 48.7964 266.19 49.7669C265.046 52.2019 264.797 55.3789 264.007 58.0809L263.73 58.2259C259.276 56.1104 251.807 53.3974 246.925 51.3929C241.25 49.0624 230.066 44.1289 224.3 42.7274L225.184 41.7149Z" fill="#85F1F8"/>
<path d="M203.406 89.6864C205.69 89.3834 207.563 88.5519 209.946 88.2424C218.484 87.1339 225.831 89.6519 233.837 92.3169C230.804 92.3684 229.802 91.3864 227.016 92.3629C224.775 92.4254 212.138 91.1019 208.478 90.9524C206.777 90.2564 205.493 90.3669 203.658 90.3099L203.406 89.6864Z" fill="#85F1F8"/>
<path d="M110.037 14.7969C118.804 10.5119 140.944 5.70193 150.95 4.31793C156.717 9.55693 172.355 15.3064 179.55 19.2899L179.792 19.8169C179.618 20.7454 179.501 21.5934 179.374 22.5299C178.099 24.6234 176.955 25.1244 174.919 26.4614C176.584 28.0694 178.485 29.5069 180.301 30.9549C173.981 30.4194 167.616 31.4639 161.354 30.8414C154.023 30.1129 114.88 21.4374 110.698 16.8444C110.021 16.1004 110.045 15.7654 110.037 14.7969Z" fill="#57E2F8"/>
<path d="M192.022 64.0504C201.717 64.8629 205.685 64.0184 215.143 61.8414C213.177 66.4604 202.816 86.8289 203.406 89.6864L203.658 90.3099C205.493 90.3669 206.777 90.2564 208.478 90.9524C195.699 91.9839 189.217 92.9804 177.168 97.9094C176.503 96.8829 176.329 96.1149 176.86 94.8824C181.228 84.7544 188.249 74.3214 192.022 64.0504Z" fill="#85F1F8"/>
<path d="M208.232 28.7394L210.737 29.2694C215.933 30.2509 223.873 31.4459 229.196 30.8984C227.823 35.6334 226.705 36.9234 224.881 41.1909L225.184 41.7149L224.3 42.7274C223.206 44.0129 218.434 54.8169 217.299 57.1614C210.62 54.9039 204.529 55.3449 197.667 56.0064C197.417 50.1874 202.82 43.5414 205.894 38.1209L205.564 37.6949C206.53 35.1749 207.237 31.6629 208.232 28.7394Z" fill="#85F1F8"/>
<path d="M208.232 28.7394L210.737 29.2694C209.151 32.2859 207.644 35.1934 205.894 38.1209L205.564 37.6949C206.53 35.1749 207.237 31.6629 208.232 28.7394Z" fill="#57E2F8"/>
<path d="M197.667 56.0064C204.529 55.3449 210.62 54.9039 217.299 57.1614C220.459 58.0944 223.594 59.1074 226.702 60.1999C223.442 60.5799 218.13 61.0459 215.143 61.8414C205.685 64.0184 201.717 64.8629 192.022 64.0504C184.287 63.0504 177.409 61.2644 169.782 59.7934C180.634 59.0394 186.936 57.9514 197.667 56.0064Z" fill="#85F1F8"/>
<path d="M85.5757 26.1339L86.6247 25.6474C98.1647 28.1749 115.13 31.4239 126.057 35.2519C115.645 34.2674 109.844 33.5319 99.6342 31.2489C96.7357 29.4309 89.3917 28.2099 85.5757 26.1339Z" fill="#85F1F8"/>
<path d="M142.463 41.2159C161.825 39.0814 180.75 54.5639 151.573 56.9509C141.476 56.0599 133.446 54.6374 125.784 47.3719C131.617 43.4874 135.543 42.2669 142.463 41.2159Z" fill="#85F1F8"/>
<path d="M160.151 34.8889C165.359 35.8054 195.35 41.4119 195.994 46.3914C185.609 48.9409 172.227 45.7834 162.147 43.0384L161.966 42.5544L161.677 41.7434C160.539 38.6214 160.526 38.1629 160.151 34.8889Z" fill="#85F1F8"/>
<path d="M170.867 311.474C172.262 311.667 171.992 311.654 173.343 312.185C174.372 313.671 174.171 312.87 173.958 314.672C172.795 316.402 172.782 316.278 170.775 317.075C168.765 316.443 167.408 316.35 167.053 314.129C167.974 312.573 169.192 312.261 170.867 311.474Z" fill="#FEFFFF"/>
<path d="M136.693 317.169C137.529 316.63 138.592 316.59 139.467 317.064C140.341 317.539 140.887 318.453 140.891 319.448C140.894 320.442 140.355 321.36 139.484 321.841C138.199 322.55 136.584 322.113 135.831 320.853C135.079 319.594 135.46 317.965 136.693 317.169Z" fill="#FEFFFF"/>
<path d="M133.286 297.747C134.644 297.707 135.808 298.711 135.967 300.06C136.126 301.409 135.228 302.657 133.898 302.933C132.927 303.135 131.926 302.772 131.31 301.995C130.694 301.218 130.57 300.16 130.988 299.262C131.406 298.363 132.295 297.777 133.286 297.747Z" fill="#FEFFFF"/>
<path d="M185.605 36.2909C188.27 35.9419 200.181 35.8054 201.342 37.8369C197.078 37.9249 190.251 37.1794 185.866 36.7379L185.605 36.2909Z" fill="#85F1F8"/>
<path d="M66.3767 394.439C69.9192 397.799 73.7537 401.304 77.1807 404.744L77.5232 435.739C58.3922 436.149 59.9632 439.609 59.4977 457.769C59.2522 467.339 60.1412 478.384 59.6267 487.744L59.4007 487.659C56.5927 494.009 50.1092 502.904 44.4962 507.119C43.7162 510.974 47.5172 509.159 44.1737 514.969C49.6332 511.469 52.6297 504.904 61.0092 505.009C59.2562 511.799 60.8347 523.029 59.7702 526.364C51.3137 535.484 50.0637 546.729 50.2227 558.724C50.2852 563.434 52.1527 572.209 51.9792 575.519L50.7027 573.519C47.4002 570.699 44.3732 568.214 41.4057 565.009C37.5462 549.434 37.7002 549.014 26.5262 536.854C9.68417 518.524 -0.301831 495.244 8.13417 470.369C21.5242 480.779 28.8487 491.874 32.9872 508.394C34.1402 512.999 35.3462 519.154 36.9867 523.434C36.9822 517.474 38.2732 500.389 37.6937 496.954C34.4617 477.814 20.2917 460.339 20.2952 440.299C20.2967 429.129 26.3752 412.094 34.1862 404.444C40.9767 426.319 49.0872 439.844 45.5747 463.574C44.8027 468.784 40.5862 480.284 40.8967 484.039C41.0122 485.434 41.2302 486.824 42.3182 487.749C43.7062 486.639 45.5942 480.334 46.4857 478.219C51.0352 467.424 54.0457 454.994 54.4492 443.269C55.3062 418.364 50.1367 414.074 66.3767 394.439Z" fill="#07529E"/>
<path d="M44.1737 514.969C49.6332 511.469 52.6297 504.904 61.0092 505.009C59.2562 511.799 60.8347 523.029 59.7702 526.364C51.3137 535.484 50.0637 546.729 50.2227 558.724C50.2852 563.434 52.1527 572.209 51.9792 575.519L50.7027 573.519C49.1342 563.594 45.0582 553.384 44.3447 543.179C43.7152 534.174 42.8547 523.909 44.1737 514.969Z" fill="#017FD1"/>
<path d="M59.0092 475.224L59.4007 487.659C56.5927 494.009 50.1092 502.904 44.4962 507.119C44.6827 495.764 51.2282 483.244 59.0092 475.224Z" fill="#17C7F3"/>
<path d="M103.654 200.508C103.567 211.5 95.9552 220.998 85.2462 223.477C74.5377 225.957 63.5257 220.77 58.6167 210.935C53.7082 201.1 56.1832 189.182 64.6022 182.114C73.0212 175.047 85.1877 174.674 94.0237 181.212C100.135 185.734 103.714 192.906 103.654 200.508Z" fill="#85F1F8"/>
<path d="M73.6672 186.461L75.4047 184.816C81.0902 179.416 88.9707 183.279 90.4422 191.038C90.6572 190.454 90.4802 190.787 91.1357 190.145C95.7447 192.423 97.4867 199.254 96.5112 204.004C94.5942 213.335 84.0537 218.589 75.2397 216.269C70.6042 215.038 66.6557 212 64.2782 207.834C58.7432 197.931 65.1352 190.85 73.6672 186.461Z" fill="#85F1F8"/>
<path d="M73.6672 186.461L75.4047 184.816C81.0902 179.416 88.9707 183.279 90.4422 191.038C86.4277 203.867 70.4577 196.97 73.6672 186.461Z" fill="#FEFFFF"/>
<path d="M106.39 125.865C100.801 133.87 89.9967 136.232 81.5767 131.29C73.1567 126.348 69.9522 115.762 74.2172 106.98C78.4822 98.1974 88.7827 94.1704 97.8732 97.7314C103.211 99.8224 107.296 104.245 108.957 109.732C110.618 115.219 109.672 121.164 106.39 125.865Z" fill="#C9FCFC"/>
<path d="M85.9472 103.73C92.0287 100.069 95.2932 99.0779 99.3762 106.225L100.068 107.414C108.26 113.108 103.774 124.317 95.3487 127.393C91.7487 128.691 87.7677 128.403 84.3912 126.602C79.9602 124.239 78.3572 120.905 76.9407 116.448C77.8292 111.541 80.5147 105.01 85.9472 103.73Z" fill="#57E2F8"/>
<path d="M85.9472 103.73C92.0287 100.069 95.2932 99.0779 99.3762 106.225L100.068 107.414C96.0612 117.736 84.2677 113.911 85.9472 103.73Z" fill="#FEFFFF"/>
<path d="M99.4737 84.5879C80.7542 84.3374 62.8397 73.1609 45.9782 65.2749C47.3712 64.8314 58.3877 67.9299 60.8747 68.5599C76.5967 72.5419 88.5372 74.5109 104.835 74.5069C110.521 74.7214 118.171 74.1964 123.382 77.1534L123.913 77.9094C121.705 77.6814 119.6 76.2724 118.286 76.4929C119.649 77.4884 123.715 79.0429 125.669 78.9304L125.911 79.2679C125.471 79.5894 101.814 84.3514 99.4737 84.5879Z" fill="#17C7F3"/>
<path d="M78.2162 273.877C79.7932 273.966 82.0447 274.017 83.5507 274.268C86.8662 275.976 89.7857 278.03 91.0317 281.766C91.9312 284.531 91.6252 287.546 90.1887 290.073C88.5267 293.046 85.6747 295.166 82.3497 295.902C76.2727 297.228 71.6652 294.156 68.5157 289.206L68.3752 288.654C66.1892 280.3 70.4012 276.017 78.2162 273.877Z" fill="#85F1F8"/>
<path d="M83.5507 274.268C86.8662 275.976 89.7857 278.03 91.0317 281.766C91.9312 284.531 91.6252 287.546 90.1887 290.073C88.5267 293.046 85.6747 295.166 82.3497 295.902C76.2727 297.228 71.6652 294.156 68.5157 289.206C69.4262 288.599 70.1732 288.016 71.0397 287.356L71.6112 287.711L72.5117 287.396C73.3797 287.812 74.2597 288.203 75.1502 288.568C81.8782 291.312 83.2382 287.586 87.8612 287.33C88.3992 285.192 87.4257 281.837 85.5307 280.768C85.1892 277.905 84.3402 277.066 83.5507 274.268Z" fill="#C9FCFC"/>
<path d="M71.6112 287.711L72.5117 287.396C73.3797 287.812 74.2597 288.203 75.1502 288.568C81.8782 291.312 83.2382 287.586 87.8612 287.33C84.1162 295.049 76.2047 294.383 71.6112 287.711Z" fill="#57E2F8"/>
<path d="M78.2162 273.877C79.7932 273.966 82.0447 274.017 83.5507 274.268C84.3402 277.066 85.1892 277.905 85.5307 280.768C81.6177 287.755 73.7877 283.251 75.7297 277.096C77.1002 276.095 77.3782 275.338 78.2162 273.877Z" fill="#FEFFFF"/>
<path d="M68.5157 289.206L68.3752 288.654C66.1892 280.3 70.4012 276.017 78.2162 273.877C77.3782 275.338 77.1002 276.095 75.7297 277.096C72.9497 277.807 70.9862 284.547 71.0397 287.356C70.1732 288.016 69.4262 288.599 68.5157 289.206Z" fill="#C9FCFC"/>
<path d="M96.3342 241.433C98.3537 241.122 99.1307 240.896 101.122 241.14C106.303 242.541 111.141 246.296 109.823 251.989C105.892 268.975 75.4257 253.865 96.3342 241.433Z" fill="#C9FCFC"/>
<path d="M104.11 247.13L104.189 246.983L104.681 246.852C106.001 248.88 106.97 249.858 106.886 252.224C103.218 260.864 89.1067 258.207 93.6912 246.684L94.3432 246.762L94.6742 247.153C97.6012 252.046 101.267 252.206 104.11 247.13Z" fill="#85F1F8"/>
<path d="M96.3342 241.433C98.3537 241.122 99.1307 240.896 101.122 241.14C102.136 243.011 103.323 245.166 104.11 247.13C101.267 252.206 97.6012 252.046 94.6742 247.153C95.1727 245.923 95.9392 242.842 96.3342 241.433Z" fill="#FEFFFF"/>
<path d="M65.3612 43.6934C70.9392 45.2369 76.5987 46.4679 82.3137 47.3814C85.8152 47.9309 96.1427 48.7789 98.0357 51.2364C96.2712 53.0884 81.8822 54.3469 78.7912 54.6034C73.6102 55.1029 59.8857 54.1374 55.5932 51.6439C56.1802 51.2359 66.6177 54.0934 69.3032 53.9449C68.6772 51.8319 69.0657 48.1609 70.3242 46.3419L69.9222 45.7764C67.8462 45.4439 67.7022 45.2379 65.8672 44.0324L65.3612 43.6934Z" fill="#17C7F3"/>
<path d="M636.655 17.7794C642.2 19.7804 648.945 23.3844 654.135 26.2864C683.65 42.6614 707.25 67.9289 721.58 98.4924C738.105 133.64 737.66 165.525 737.575 203.198L737.565 269.341L737.56 366.319C737.555 380.024 738.235 400.704 737.515 413.929C737.65 422.864 737.645 431.799 737.5 440.734C737.62 454.509 737.635 468.284 737.54 482.059L737.575 507.719C737.59 513.909 737.705 520.429 737.57 526.589C729.225 526.769 717.495 532.824 710.175 536.779C706.9 539.084 704.325 540.979 701.23 543.509L696.38 548.599C694.375 543.699 694.465 541.244 695.375 536.064C696.94 526.804 698.055 519.429 697.065 509.854C695.65 496.099 687.795 482.709 678.27 472.879C677.145 471.714 676.63 472.179 675.135 472.404L675.13 417.114C675.13 408.434 675.485 398.789 674.58 390.169C674.275 387.279 671.305 381.544 669.055 379.614C663.69 375.009 656.17 372.669 649.85 369.594C642.195 366.294 629.065 359.904 621.71 357.968C617.89 356.963 601.465 357.369 596.425 357.39L552.79 357.485C552.41 352.592 551.445 348.598 550.165 343.894C544.48 330.381 538.03 323.422 525.785 315.824C534.9 308.546 538.78 305.032 543.195 294.131C544.89 293.955 546.575 293.703 548.245 293.377C571.565 289.062 590.705 269.252 598.665 247.549C604.55 231.519 605.88 212.178 602.64 195.424C598.225 172.208 584.65 151.746 564.975 138.653C558.855 134.527 549.945 129.614 542.285 130.987C536.55 132.087 535.79 137.878 535.24 142.666C534 153.468 531.34 164.152 525.53 173.45C524.65 174.853 523.735 176.648 522.115 177.014C521.155 176.094 521.15 174.846 520.905 173.459C522.5 170.715 520.06 151.471 523.195 147.45L522.995 146.292C521.865 146.396 522.4 146.383 521.395 146.345L522.535 145.378C523.47 140.53 526.875 135.475 526.925 132.29C526.97 123.55 523.91 112.586 526.525 104.21C527.015 102.649 533.23 104.656 535.9 103.723C542.055 104.143 549.74 109.141 554.34 107.871C555.59 106.887 555.55 106.993 555.995 105.475C555.845 104.057 555.24 102.759 554.09 101.933C539.545 91.4559 519.98 90.8194 503.53 91.6649C508.43 89.2964 515.185 91.4189 520.285 90.3554C517.39 86.2329 509.05 90.9179 505.995 88.8789C509.31 87.2784 519.275 88.2704 523.005 88.6584C518.56 77.7634 512.74 67.1344 508.355 56.3914C506.93 56.1564 505.925 55.9589 504.52 55.6259C505.33 54.7709 506.285 54.8569 507.71 54.5564C514.06 53.7019 520.45 51.8809 527.935 50.9334C532.565 50.9399 534.795 51.1194 539.335 51.6184C543.01 52.2134 559.09 54.3794 561.32 56.4454L561.09 56.9174L561.485 57.2174C566.45 57.1874 572.55 56.3339 577.725 56.2714C584.475 56.1904 592.25 52.1884 598.51 49.5894L599.88 48.5794L599.825 47.7434C598.245 46.7329 595.825 46.6844 593.88 46.4574L593.7 46.1709C596.81 45.9364 599.25 45.5199 601.145 48.3894L602.1 48.2104L602.245 47.9424L601.545 48.9844L601.245 48.5029L601.83 48.8704C603.425 45.9894 604.08 44.4229 603.195 41.2839C606.45 40.5769 613 37.2669 615.26 37.6279C622.49 38.7809 622.405 37.3589 626.24 31.3139C627.75 30.7129 628.54 30.1579 629.935 29.3339L630.055 28.3544C633.185 26.3024 638.7 23.5469 642.14 21.6934L635.88 22.6849C636.98 19.7329 637.38 20.1639 636.655 17.7794Z" fill="#0193E1"/>
<path d="M561.09 56.9174L561.485 57.2174C566.45 57.1874 572.55 56.3339 577.725 56.2714C584.475 56.1904 592.25 52.1884 598.51 49.5894C600 50.7234 601.215 51.6164 602.775 52.6499L602.675 52.3739C605.225 55.6939 604.76 62.6484 609.51 63.4494L610.105 63.1294C617.92 59.0274 624.87 60.0434 632.855 62.5029C628.285 65.0594 627.07 65.7969 622.305 67.5029C615.965 69.7709 606.84 67.0514 604.14 73.2614C602.08 74.1364 602.035 73.7834 600.865 75.3129C602.16 77.4634 602.84 76.7734 604.87 77.6994C606.15 79.1094 606.535 78.9819 607.945 80.0219C607.68 84.8514 603.585 82.1629 608 89.0099C607.175 94.3254 605.985 93.7224 606.265 99.7854L606.305 100.492L605.685 100.995C609.705 101.731 615.295 103.216 618.975 103.579C625.13 104.185 632.315 103.702 638.535 104.318C630.145 109.116 620.195 114.006 610.78 116.439L609.835 116.543L609.265 117.396L608.54 117.349C610.395 118.561 609.825 117.859 610.66 119.968C611.225 121.401 612.68 124.207 612.89 125.636C614.16 134.142 614.73 143.006 616.395 151.439C617.41 156.583 615.645 159.91 617.34 165.241C618.635 169.322 618.86 174.578 620.11 179.045L620.18 176.842C621.09 181.93 621.065 186.089 621.64 191.129C621.92 193.608 624.965 199.505 624.895 201.866C622.965 199.015 621.68 195.11 621.57 191.685C620.135 193.216 620.23 208.01 619.11 211.48C619.125 211.438 617.665 218.383 617.665 218.255C617.595 232.592 616.49 248.395 609.005 261.016C607.295 263.895 608.205 266.722 605.47 268.735C603.615 270.639 599.695 276.033 597.91 278.362L597.155 277.864C596.17 281.922 577.545 284.962 575.665 287.099C576.565 289.559 589.235 290.458 591.895 290.496C594.21 290.799 598.525 291.082 600.285 292.091C601.485 294.082 600.995 298.438 601.76 301.048C598.8 303.912 598.235 304.34 597.665 308.33L596.785 306.238C594.5 305.842 594.33 306.73 592.995 308.573C590.31 309.87 586.9 309.499 586.325 310.614L586.61 311.439C584.885 314.491 585.18 321.032 583.065 323.806C578.705 329.528 569.915 331.871 569.59 340.321C569.435 342.915 569.19 344.788 570.545 347.292C572.905 348.386 578.295 343.075 581.47 346.1C582.01 348.562 580.975 352.331 580.895 355.37C580.18 356.144 580.345 356.323 579.035 356.23C573.56 355.843 557.71 357.552 553.56 355.144C551.54 352.143 553.865 345.97 550.165 343.894C544.48 330.381 538.03 323.422 525.785 315.824C534.9 308.546 538.78 305.032 543.195 294.131C544.89 293.955 546.575 293.703 548.245 293.377C571.565 289.062 590.705 269.252 598.665 247.549C604.55 231.519 605.88 212.178 602.64 195.424C598.225 172.208 584.65 151.746 564.975 138.653C558.855 134.527 549.945 129.614 542.285 130.987C536.55 132.087 535.79 137.878 535.24 142.666C534 153.468 531.34 164.152 525.53 173.45C524.65 174.853 523.735 176.648 522.115 177.014C521.155 176.094 521.15 174.846 520.905 173.459C522.5 170.715 520.06 151.471 523.195 147.45L522.995 146.292C521.865 146.396 522.4 146.383 521.395 146.345L522.535 145.378C523.47 140.53 526.875 135.475 526.925 132.29C526.97 123.55 523.91 112.586 526.525 104.21C527.015 102.649 533.23 104.656 535.9 103.723C542.055 104.143 549.74 109.141 554.34 107.871C555.59 106.887 555.55 106.993 555.995 105.475C555.845 104.057 555.24 102.759 554.09 101.933C539.545 91.4559 519.98 90.8194 503.53 91.6649C508.43 89.2964 515.185 91.4189 520.285 90.3554C517.39 86.2329 509.05 90.9179 505.995 88.8789C509.31 87.2784 519.275 88.2704 523.005 88.6584C518.56 77.7634 512.74 67.1344 508.355 56.3914C506.93 56.1564 505.925 55.9589 504.52 55.6259C505.33 54.7709 506.285 54.8569 507.71 54.5564C514.06 53.7019 520.45 51.8809 527.935 50.9334C532.565 50.9399 534.795 51.1194 539.335 51.6184C543.01 52.2134 559.09 54.3794 561.32 56.4454L561.09 56.9174Z" fill="#17C7F3"/>
<path d="M605.685 100.995C609.705 101.731 615.295 103.216 618.975 103.579C625.13 104.185 632.315 103.702 638.535 104.318C630.145 109.116 620.195 114.006 610.78 116.439C608.415 116.287 604.48 116.798 601.78 116.83C593.035 116.932 581.895 115.162 574.635 109.999C585.92 102.025 592.515 101.286 605.685 100.995Z" fill="#17C7F3"/>
<path d="M527.935 50.9334C532.565 50.9399 534.795 51.1194 539.335 51.6184C543.01 52.2134 559.09 54.3794 561.32 56.4454L561.09 56.9174C542.885 60.8419 526.59 60.2794 508.355 56.3914C506.93 56.1564 505.925 55.9589 504.52 55.6259C505.33 54.7709 506.285 54.8569 507.71 54.5564C514.06 53.7019 520.45 51.8809 527.935 50.9334Z" fill="#85F1F8"/>
<path d="M559.77 305.685C562.175 306.052 562.025 305.852 563.13 307.227C563.3 308.96 562.825 309.72 562.19 311.336C560.745 311.655 561.28 311.707 559.925 311.256C558.975 309.653 559.525 307.637 559.77 305.685Z" fill="#C9FCFC"/>
<path d="M545.65 310.052C548.055 310.108 549.31 309.981 550.9 311.901C548.51 312.008 547.785 312.427 545.96 311.485L545.65 310.052Z" fill="#57E2F8"/>
<path d="M711.49 456.199C712.01 445.964 710.865 429.314 707.59 419.859C703.085 406.879 696.16 395.059 695.635 380.769C695.125 366.799 699.68 354.195 709.215 343.875C714.7 363.629 721.44 382.619 718.765 403.304C716.96 417.249 714.145 420.579 715.74 434.944C716.265 433.564 716.92 431.924 717.475 430.564C719.26 426.174 732.77 408.289 737.06 410.589C737.195 411.704 737.345 412.819 737.515 413.929C737.65 422.864 737.645 431.799 737.5 440.734C737.62 454.509 737.635 468.284 737.54 482.059L737.575 507.719C737.59 513.909 737.705 520.429 737.57 526.589C729.225 526.769 717.495 532.824 710.175 536.779C706.9 539.084 704.325 540.979 701.23 543.509C701.395 540.414 705.665 527.489 706.62 522.949C712.11 496.874 703.355 485.039 692.61 462.724C687.855 453.249 686.71 443.124 684.39 433.089C682.045 422.939 679.505 419.959 683.57 409.459C699.285 422.259 704.6 438.294 711.49 456.199Z" fill="#07529E"/>
<path d="M713.59 500.449C713.68 495.129 713.625 484.049 715.07 479.474C717.53 471.699 736.985 447.814 737.5 440.734C737.62 454.509 737.635 468.284 737.54 482.059C730.225 483.524 718.78 495.029 713.59 500.449Z" fill="#017FD1"/>
<path d="M710.175 536.779C714.105 513.524 723.095 521.619 737.575 507.719C737.59 513.909 737.705 520.429 737.57 526.589C729.225 526.769 717.495 532.824 710.175 536.779Z" fill="#017FD1"/>
<path d="M622.965 73.7959C633.545 72.2419 641.955 82.0114 635.255 90.2739C633.07 92.9559 629.895 94.6414 626.445 94.9474C617.875 95.6414 612.875 89.0629 613.94 80.8729C616.225 77.2204 616.19 77.9379 619.275 75.0964L619.705 74.6924L622.525 73.9379L622.965 73.7959Z" fill="#C9FCFC"/>
<path d="M622.525 73.9379L622.965 73.7959C626.765 74.6424 628.38 75.3474 630.24 78.8034C631.87 80.9769 634 83.1789 633.2 86.0649L632.76 84.9084C631.055 85.1869 629.875 85.8649 628.345 86.7089C626.05 87.9769 621.245 87.2089 618.57 86.7839L617.755 87.1299C616.015 85.3984 618.175 80.5309 619.81 79.2674C620.82 77.6584 621.685 75.6749 622.525 73.9379Z" fill="#85F1F8"/>
<path d="M622.525 73.9379L622.965 73.7959C626.765 74.6424 628.38 75.3474 630.24 78.8034C627.195 85.4409 623.21 86.6244 619.81 79.2674C620.82 77.6584 621.685 75.6749 622.525 73.9379Z" fill="#FEFFFF"/>
<path d="M617.755 87.1299L618.57 86.7839C621.245 87.2089 626.05 87.9769 628.345 86.7089C629.875 85.8649 631.055 85.1869 632.76 84.9084L633.2 86.0649C631.385 93.6179 622.215 93.5044 617.755 87.1299Z" fill="#57E2F8"/>
<path d="M608.36 298.485L609.63 299.074C619.115 302.494 621.54 311.926 612.4 315.875C609.76 317.014 606.76 316.958 604.165 315.723C600.715 314.106 599.235 311.622 597.665 308.33C598.235 304.34 598.8 303.912 601.76 301.048L602.1 301.036C604.385 299.538 605.785 299.249 608.36 298.485Z" fill="#85F1F8"/>
<path d="M609.63 299.074C619.115 302.494 621.54 311.926 612.4 315.875C609.76 317.014 606.76 316.958 604.165 315.723C600.715 314.106 599.235 311.622 597.665 308.33C598.235 304.34 598.8 303.912 601.76 301.048L602.1 301.036C603.175 302.649 602.925 301.797 602.975 303.649C601.93 304.293 601.42 307.917 600.97 309.645C610.32 319.593 619.115 310.85 612.21 304.379C611.35 304.927 611.74 304.671 611.37 306.186C611.48 303.343 610.75 301.607 609.63 299.074Z" fill="#C9FCFC"/>
<path d="M608.36 298.485L609.63 299.074C610.75 301.607 611.48 303.343 611.37 306.186C607.83 309.693 604.265 308.59 602.975 303.649C602.925 301.797 603.175 302.649 602.1 301.036C604.385 299.538 605.785 299.249 608.36 298.485Z" fill="#FEFFFF"/>
<path d="M604.14 73.2614C607.36 72.3359 617.785 70.9394 620.335 73.3049L619.525 74.2944L619.705 74.6924L619.275 75.0964C616.19 77.9379 616.225 77.2204 613.94 80.8729L613.88 79.2524C612.12 77.9644 607.195 77.8579 604.87 77.6994C602.84 76.7734 602.16 77.4634 600.865 75.3129C602.035 73.7834 602.08 74.1364 604.14 73.2614Z" fill="#17C7F3"/>
<path d="M591.895 290.496C595.22 290.302 597.985 289.906 601.085 291.209C603.59 294.026 601.17 295.177 603.665 298.642C604.675 298.592 607.51 298.391 608.36 298.485C605.785 299.249 604.385 299.538 602.1 301.036L601.76 301.048C600.995 298.438 601.485 294.082 600.285 292.091C598.525 291.082 594.21 290.799 591.895 290.496Z" fill="#17C7F3"/>
<path d="M654.485 149.096C672.645 148.305 688.02 162.382 688.825 180.546C689.63 198.71 675.565 214.092 657.405 214.914C639.22 215.737 623.815 201.653 623.005 183.467C622.2 165.281 636.295 149.887 654.485 149.096Z" fill="#85F1F8"/>
<path d="M638.24 168.865C639.9 165.787 639.545 163.706 642.83 161.338C650.415 155.874 656.49 157.803 661.52 164.866C668.695 165.669 676.63 168.829 677.965 176.9C681.655 189.669 674.51 200.295 662.05 203.861C655.82 205.641 649.135 204.822 643.52 201.591C638.5 198.754 634.515 194.092 632.77 188.568C631.335 184.068 631.175 178.906 633.075 174.522C633.86 172.711 636.12 168.642 637.955 167.85L638.24 168.865Z" fill="#57E2F8"/>
<path d="M638.24 168.865C639.9 165.787 639.545 163.706 642.83 161.338C650.415 155.874 656.49 157.803 661.52 164.866C664.62 181.935 639.035 185.98 638.24 168.865Z" fill="#FEFFFF"/>
<path d="M632.77 188.568L633.335 187.842C635.03 188.011 638.685 193.401 643.26 195.293C650.255 198.187 657.28 197.63 664.245 195.044C669.5 192.909 674.805 188.707 676.54 183.106C677.27 180.755 676.745 179.227 677.965 176.9C681.655 189.669 674.51 200.295 662.05 203.861C655.82 205.641 649.135 204.822 643.52 201.591C638.5 198.754 634.515 194.092 632.77 188.568Z" fill="#17C7F3"/>
<path d="M642.355 242.403C652.275 240.769 661.63 247.534 663.18 257.468C664.735 267.402 657.895 276.698 647.945 278.169C638.115 279.623 628.95 272.878 627.415 263.058C625.88 253.239 632.55 244.019 642.355 242.403Z" fill="#C9FCFC"/>
<path d="M634.635 253.52C637.905 244.332 643.935 243.948 649.48 251.582C654.325 252.4 657.285 255.311 657.75 260.338C657.575 264.152 656.605 266.926 653.705 269.635C651.185 271.98 647.825 273.205 644.39 273.03C638.93 272.773 635.075 269.223 632.765 264.533C630.655 261.395 633.045 256.337 634.635 253.52Z" fill="#57E2F8"/>
<path d="M634.635 253.52C637.905 244.332 643.935 243.948 649.48 251.582C648.64 256.183 645.77 260.528 640.485 259.41C638.595 259.027 636.955 257.87 635.96 256.221C635.485 255.435 635.015 254.368 634.635 253.52Z" fill="#FEFFFF"/>
<path d="M651.69 266.726C654.095 264.448 654.87 262.589 657.75 260.338C657.575 264.152 656.605 266.926 653.705 269.635C651.185 271.98 647.825 273.205 644.39 273.03C638.93 272.773 635.075 269.223 632.765 264.533L633.925 264.716C638.995 269.212 645.725 268.654 651.69 266.726Z" fill="#85F1F8"/>
<path d="M652.635 109.07C657.805 108.763 662.645 109.608 665.285 114.689C666.375 116.752 666.56 119.174 665.8 121.379C664.55 124.952 661.875 126.501 658.665 127.986C653.705 128.258 649.02 127.523 646.26 122.787C645.09 120.801 644.805 118.418 645.47 116.211C646.59 112.54 649.465 110.738 652.635 109.07Z" fill="#FEFFFF"/>
<path d="M660.32 114.396C667.07 121.856 658.34 129.314 650.035 123.422C648.22 121.119 647.38 117.886 649.125 115.367L650.085 115.259C653.535 116.378 652.695 119.373 656.505 118.755C658.625 117.247 658.84 116.638 660.32 114.396Z" fill="#85F1F8"/>
<path d="M627.695 119.128L628.155 119.252C629.13 121.136 631.12 120.5 632.545 122.502L632.345 123.253C629.835 124.968 623.205 125.334 619.865 125.693C619.41 125.787 618.955 125.877 618.5 125.962C616.34 126.36 615.36 126.656 613.545 125.396L613.44 124.707C615.585 122.305 624.23 120.177 627.695 119.128Z" fill="#17C7F3"/>
<path d="M196.226 0.858926C199.449 0.151426 219.717 0.465927 223.917 0.475427C245.69 0.394927 267.462 0.505424 289.233 0.806924L448.83 0.894922C450.11 6.56542 457.045 22.5134 459.67 27.9619C460.95 28.5819 460.3 28.4224 461.675 28.2829L461.99 28.5704C460.245 30.4589 462.535 34.0514 463.015 36.4794C472.1 38.1029 478.5 39.0364 487.805 38.0889C491.235 37.7394 496.965 36.6819 499.91 36.5024C500.545 39.1854 506.185 51.8159 507.71 54.5564C506.285 54.8569 505.33 54.7709 504.52 55.6259C505.925 55.9589 506.93 56.1564 508.355 56.3914C512.74 67.1344 518.56 77.7634 523.005 88.6584C519.275 88.2704 509.31 87.2784 505.995 88.8789C509.05 90.9179 517.39 86.2329 520.285 90.3554C515.185 91.4189 508.43 89.2964 503.53 91.6649C496.65 93.5874 491.04 93.1359 483.27 96.4469C447.09 109.883 423.415 137.538 411.145 173.581C375.125 161.443 352.044 161.633 315.916 173.492C301.852 139.682 283.599 115.831 249.788 99.3814C250.531 98.9169 250.33 98.9754 250.872 98.1729L250.4 96.7044L251.638 96.8709C253.213 96.1249 256.066 88.6139 255.508 87.3034L256.422 87.2274C257.125 84.8294 257.273 82.6229 258.086 79.9044L257.888 79.7024C258.181 76.1979 262.471 62.4629 263.73 58.2259L264.007 58.0809C264.797 55.3789 265.046 52.2019 266.19 49.7669C266.645 48.7964 266.905 49.0859 268.445 48.6979C267.668 48.4744 266.072 48.5404 264.753 48.3009C267.152 47.2319 269.93 37.4574 269.552 34.8664L268.246 33.9389C250.729 32.0584 248.568 26.8389 229.196 30.8984C223.873 31.4459 215.933 30.2509 210.737 29.2694L208.232 28.7394C200.226 26.5794 187.331 22.3329 179.55 19.2899C172.355 15.3064 156.717 9.55693 150.95 4.31793C162.022 2.48993 183.813 0.950929 195.383 1.06193L196.226 0.858926Z" fill="#85F1F8"/>
<path d="M196.226 0.858926C199.449 0.151426 219.717 0.465927 223.917 0.475427C245.69 0.394927 267.462 0.505424 289.233 0.806924L448.83 0.894922C450.11 6.56542 457.045 22.5134 459.67 27.9619C460.95 28.5819 460.3 28.4224 461.675 28.2829L461.99 28.5704C460.245 30.4589 462.535 34.0514 463.015 36.4794L462.405 36.6569C428.61 46.3789 409.145 53.0699 377.035 35.2264C380.86 34.9209 383.175 34.2764 386.93 33.3399C382.4 32.9264 377.305 33.7174 372.685 33.9009C364.75 34.2154 356.94 33.5149 349.172 31.9129C330.77 39.9624 301.002 38.7059 281.439 36.1324C276.994 35.7219 272.585 34.9889 268.246 33.9389C250.729 32.0584 248.568 26.8389 229.196 30.8984C223.873 31.4459 215.933 30.2509 210.737 29.2694L208.232 28.7394C200.226 26.5794 187.331 22.3329 179.55 19.2899C172.355 15.3064 156.717 9.55693 150.95 4.31793C162.022 2.48993 183.813 0.950929 195.383 1.06193L196.226 0.858926Z" fill="#C9FCFC"/>
<path d="M150.95 4.31794C162.022 2.48994 183.813 0.950943 195.383 1.06194C197.256 6.22144 206.339 5.13643 207.387 7.22643L207.277 7.57543L208.064 7.77294C211.091 8.50694 217.386 8.37193 218.947 10.3729L218.98 10.6144C221.498 11.7529 224.734 12.2294 226.552 13.2799C230.088 13.9699 233.619 14.6934 237.142 15.4504C247.305 19.2554 263.067 27.9869 274.641 26.3124L275.653 25.5729C277.399 25.7129 277.551 25.6019 279.09 26.5124L278.873 26.9614C277.322 27.1444 274.259 27.2219 273.267 28.0099C272.432 30.0294 271.886 30.8694 271.921 32.9894C273.956 35.6879 278.693 33.1699 281.439 36.1324C276.994 35.7219 272.585 34.9889 268.246 33.9389C250.729 32.0584 248.568 26.8389 229.196 30.8984C223.873 31.4459 215.933 30.2509 210.737 29.2694L208.232 28.7394C200.226 26.5794 187.331 22.3329 179.55 19.2899C172.355 15.3064 156.717 9.55694 150.95 4.31794Z" fill="#85F1F8"/>
<path d="M237.142 15.4504C236.8 16.5749 236.452 17.6974 236.098 18.8179C231.401 34.1334 215.04 24.4609 204.559 22.5009C201.866 21.9974 191.698 19.7509 190.846 17.0429C192.615 16.0569 205.485 17.3559 209.165 16.8644C212.025 16.4819 221.956 14.7444 223.792 15.1359C226.665 15.7479 230.042 19.3544 234.927 19.7289L235.423 19.1264C235.8 16.9924 235.98 17.9369 235.108 16.1579C232.897 14.6479 228.925 14.3909 226.009 13.8854L226.552 13.2799C230.088 13.9699 233.619 14.6934 237.142 15.4504Z" fill="#C9FCFC"/>
<path d="M207.277 7.57542L208.064 7.77293C211.091 8.50693 217.386 8.37192 218.947 10.3729L218.98 10.6144C214.953 9.84593 206.608 9.22143 203.515 8.18143C204.427 7.35693 205.671 7.64242 207.277 7.57542Z" fill="#57E2F8"/>
<path d="M196.226 0.858932C224.508 1.28343 254.211 0.333423 282.284 1.23692C280.045 7.35692 276.608 15.1209 274.835 21.0404C271.533 20.7789 268.228 20.5414 264.922 20.3274C266.052 20.8444 275.844 25.5979 275.653 25.5729L274.641 26.3124C263.067 27.9869 247.305 19.2554 237.142 15.4504C233.619 14.6934 230.088 13.9699 226.552 13.2799C224.734 12.2294 221.498 11.7529 218.98 10.6144L218.947 10.3729C217.386 8.37192 211.091 8.50693 208.064 7.77293L207.277 7.57542L207.387 7.22642C206.339 5.13642 197.256 6.22144 195.383 1.06194L196.226 0.858932Z" fill="#85F1F8"/>
<path d="M329.28 10.9124C333.715 10.5134 354.881 11.4889 356.955 14.2964L356.71 15.2089C351.897 18.0894 340.259 18.6714 334.669 18.2479C320.394 18.1369 317.256 18.1154 303.542 13.9544C312.533 12.8339 322.728 15.4639 329.28 10.9124Z" fill="#C9FCFC"/>
<path d="M463.015 36.4794C472.1 38.1029 478.5 39.0364 487.805 38.0889C491.235 37.7394 496.965 36.6819 499.91 36.5024C500.545 39.1854 506.185 51.8159 507.71 54.5564C506.285 54.8569 505.33 54.7709 504.52 55.6259C505.925 55.9589 506.93 56.1564 508.355 56.3914C512.74 67.1344 518.56 77.7634 523.005 88.6584C519.275 88.2704 509.31 87.2784 505.995 88.8789C509.05 90.9179 517.39 86.2329 520.285 90.3554C515.185 91.4189 508.43 89.2964 503.53 91.6649C496.65 93.5874 491.04 93.1359 483.27 96.4469C482.725 94.8829 480.545 92.9609 479.185 90.6904L479.465 89.9889C483.465 90.8034 501.155 87.8629 501.475 84.0614C496.575 77.4299 482.675 78.5509 475.465 79.1474C474.6 75.7359 471.735 65.1554 470.215 62.3304L466 64.0829C468.335 62.4214 469.23 62.4274 469.315 59.5649C467.6 57.5209 468.48 58.1359 465.455 57.5704L468.63 56.8889C467.525 52.2819 461.945 39.6249 463.015 36.4794Z" fill="#57E2F8"/>
<path d="M468.63 56.8889C473.635 56.9459 481.575 56.5144 486.585 55.9284C480.885 57.9894 475.735 59.7939 470.215 62.3304L466 64.0829C468.335 62.4214 469.23 62.4274 469.315 59.5649C467.6 57.5209 468.48 58.1359 465.455 57.5704L468.63 56.8889Z" fill="#C9FCFC"/>
<path d="M264.007 58.0809C264.797 55.3789 265.046 52.2019 266.19 49.7669C266.645 48.7964 266.905 49.0859 268.445 48.6979C279.874 50.3484 291.642 51.1989 303.196 51.5124C307.721 51.6349 313.173 50.9024 317.892 50.8264C332.863 50.4699 347.842 50.6754 362.795 51.4419C369.73 51.7989 377.325 51.6454 384.065 52.8524C364.87 59.5319 347.339 55.0949 328.558 53.8714C332.18 55.9239 333.892 56.8169 336.78 59.9669C319.512 75.9494 282.825 66.5399 264.007 58.0809Z" fill="#C9FCFC"/>
<path d="M361.355 67.0969C378.92 66.2774 394.615 66.8959 412.51 65.0119C427.92 63.3899 450.76 58.0614 465.455 57.5704C468.48 58.1359 467.6 57.5209 469.315 59.5649C469.23 62.4274 468.335 62.4214 466 64.0829C442.04 74.0954 418.135 86.2594 392.71 77.3479C382.66 73.8249 371.52 69.7474 361.355 67.0969Z" fill="#C9FCFC"/>
<path d="M258.086 79.9044C260.127 80.5779 261.688 80.9164 263.392 82.2304L263.895 83.3754C262.435 86.0789 259.294 86.5624 256.422 87.2274C257.125 84.8294 257.273 82.6229 258.086 79.9044Z" fill="#C9FCFC"/>
<path d="M331.237 81.1484C337.819 79.9879 351.635 81.5974 355.101 87.9669C355.294 94.0759 343.367 95.4094 338.753 95.9804C328.27 95.6609 320.952 94.4134 312.595 88.0114C318.71 83.8094 323.989 82.3989 331.237 81.1484Z" fill="#C9FCFC"/>
<path d="M474.84 79.6289L475.015 79.6624C475.81 80.3889 477.665 87.1954 478.455 89.2849C476.57 88.8299 474.515 88.1399 472.65 87.5609C469.885 85.8039 469.32 85.4349 466.99 83.0899C470.055 81.1369 471.315 80.5139 474.84 79.6289Z" fill="#C9FCFC"/>
<path d="M173.539 108.848C192.003 99.9334 215.812 99.9889 234.998 106.635C263.706 116.579 286.23 140.681 299.048 167.727C300.705 171.276 302.255 174.875 303.694 178.518C284.943 190.265 272.069 199.247 260.301 219.209C259.956 195.988 253.085 173.703 235.762 157.452C230.771 152.77 213.447 137.357 206.457 145.65C202.695 150.112 209.034 175.519 204.725 177.166C198.494 171.925 194.284 159.791 192.767 152.001C190.784 141.814 191.89 127.474 176.405 131.693C174.776 131.737 174.037 131.904 172.573 131.178C170.96 127.618 173.622 114.012 173.539 108.848Z" fill="#85F1F8"/>
<path d="M423.23 178.767C434.565 147.347 457.345 118.227 489.9 107.328C503.84 102.661 521.41 100.415 535.9 103.723C533.23 104.656 527.015 102.649 526.525 104.21C523.91 112.586 526.97 123.55 526.925 132.29C526.875 135.475 523.47 140.53 522.535 145.378L521.395 146.345C522.4 146.383 521.865 146.396 522.995 146.292L523.195 147.45C520.06 151.471 522.5 170.715 520.905 173.459C519.52 163.46 523.05 152.087 519.125 143.824C517.3 142.904 515.23 142.158 513.2 142.772C491.435 149.367 475.685 171.01 470.315 192.305C467.91 201.837 467.685 209.378 467.545 218.179C453.73 199.18 443.72 190.448 423.23 178.767Z" fill="#85F1F8"/>
<path d="M674.46 559.184C674.56 562.959 679.915 571.434 682.84 573.759C680.805 580.329 678.665 587.649 675 593.489C651.45 594.914 626.95 600.989 606.8 613.614C606.905 612.409 606.995 610.254 605.57 609.714C600.005 607.614 592.51 606.484 586.605 605.709C529.87 598.269 472.09 596.829 414.905 596.999C414.96 595.739 415.01 595.564 415.315 594.329C416.835 593.394 416.59 593.754 418.755 593.774L510.98 593.754C526.765 593.789 631.215 595.164 637.325 592.744C643.35 590.364 668.135 565.394 674.46 559.184Z" fill="#0193E1"/>
<path d="M675.135 472.404C676.63 472.179 677.145 471.714 678.27 472.879C687.795 482.709 695.65 496.099 697.065 509.854C698.055 519.429 696.94 526.804 695.375 536.064C694.465 541.244 694.375 543.699 696.38 548.599C693.425 552.194 691.51 555.209 689 559.089C686.21 564.344 684.595 568.069 682.84 573.759C679.915 571.434 674.56 562.959 674.46 559.184L676.865 556.354C676.3 553.154 675.96 549.879 675.58 546.649C674.83 542.604 675.105 527.244 675.105 522.629L675.135 472.404Z" fill="#07529E"/>
<path d="M675.58 546.649C675.755 539.779 675.39 532.424 675.71 525.739C679.11 533.434 681.875 541.479 685.03 549.264C685.89 551.379 688.01 557.389 689 559.089C686.21 564.344 684.595 568.069 682.84 573.759C679.915 571.434 674.56 562.959 674.46 559.184L676.865 556.354C676.3 553.154 675.96 549.879 675.58 546.649Z" fill="#017FD1"/>
<path d="M51.9792 575.519C52.1527 572.209 50.2852 563.434 50.2227 558.724C50.0637 546.729 51.3137 535.484 59.7702 526.364C60.0147 535.289 59.3467 545.024 60.4037 553.679C61.3782 561.659 70.9062 562.049 76.7172 562.209C76.7017 569.039 76.6497 575.869 76.5607 582.694C76.5437 588.489 76.1287 602.169 76.7542 607.454C72.5567 604.074 65.4462 596.394 63.2097 591.564C59.8232 586.329 54.8187 580.369 51.9792 575.519Z" fill="#07529E"/>
<path d="M76.0162 571.474C76.1027 575.409 76.1847 578.789 76.5607 582.694C76.5437 588.489 76.1287 602.169 76.7542 607.454C72.5567 604.074 65.4462 596.394 63.2097 591.564C68.2347 584.779 71.4247 578.359 76.0162 571.474Z" fill="#017FD1"/>
<path d="M152.707 589.149L164.236 589.184L164.343 602.139L163.692 603.629C162.726 603.784 157.31 603.999 156.503 603.864C150.676 602.904 120.376 608.694 116.881 607.614C117.388 605.444 117.465 603.774 117.645 601.574C127.353 601.599 137.445 601.769 147.113 601.369C152.703 597.919 152.322 595.294 152.707 589.149Z" fill="#017FD1"/>
<path d="M59.4007 487.659L59.6267 487.744L59.8542 488.359C64.5327 500.719 71.6197 492.959 78.8112 496.864C79.0992 498.239 79.1182 498.144 78.7082 499.484C75.5077 501.744 66.1667 496.294 61.0092 505.009C52.6297 504.904 49.6332 511.469 44.1737 514.969C47.5172 509.159 43.7162 510.974 44.4962 507.119C50.1092 502.904 56.5927 494.009 59.4007 487.659Z" fill="#0067C0"/>
<path d="M227.016 92.3629C229.802 91.3864 230.804 92.3684 233.837 92.3169C239.596 94.2509 244.726 94.3054 250.4 96.7044L250.872 98.1729C250.33 98.9754 250.531 98.9169 249.788 99.3814C241.653 96.2154 235.563 94.2484 227.016 92.3629Z" fill="#85F1F8"/>
<path d="M319.103 185.083C350.367 173.712 377.06 173.931 408.43 184.671L407.28 190.591C407.055 193.335 406.525 195.841 408.63 197.966C412.17 201.537 415.45 198.743 417.475 195.602L419.825 189.931C441.745 203.032 454.815 217.584 463.925 241.495C466.485 248.228 469.355 255.549 470.3 262.679C472.505 279.242 454.43 288.365 443.995 297.321C464.15 294 475.65 287.921 484.59 269.215C490.73 275.868 495.195 280.108 503.34 284.327C513.315 288.514 517.155 289.576 527.99 290.885C518.12 316.449 470.485 320.574 450.515 307.549L449.02 308.123C449.385 309.531 449.58 311.139 450.565 312.084C450.905 317.5 442.91 330.409 440.05 335.491C437.395 341.468 432.66 351.41 431.205 357.524L297.697 357.326C295.514 350.022 291.156 342.1 289.658 336.687C289.468 336.435 288.777 335.532 288.665 335.269C286.249 329.627 277.383 318.331 278.661 312.572C279.668 311.355 279.845 310.547 280.477 309.063L279.159 308.311C275.894 308.793 269.727 312.059 265.87 312.928C243.763 317.908 211.481 314.029 200.503 291.237C211.064 290.183 215.032 288.922 224.823 285.134C232.7 281.47 238.511 275.502 244.207 269.152C246.229 273.562 247.594 277.086 250.778 280.806C259.175 290.617 270.93 295.991 283.546 297.24C281.101 294.878 276.943 292.015 274.208 289.858C255.226 274.892 254.917 265.681 263.055 244.584C271.276 219.889 285.937 202.798 308.118 189.785L310.162 195.144C310.655 196.048 311.247 196.895 311.926 197.67C313.922 199.991 317.109 200.385 319.232 197.895C321.242 195.54 320.737 193.366 320.385 190.495C320.09 188.851 319.509 186.747 319.103 185.083Z" fill="#FC4517"/>
<path d="M280.477 309.063C285.42 314.218 316.364 321.374 324.933 322.567C358.145 327.191 393.475 326.508 425.96 317.575C433.275 315.564 442.905 312.621 449.02 308.123C449.385 309.531 449.58 311.139 450.565 312.084C450.905 317.5 442.91 330.409 440.05 335.491C437.395 341.468 432.66 351.41 431.205 357.524L297.697 357.326C295.514 350.022 291.156 342.1 289.658 336.687C289.468 336.435 288.777 335.532 288.665 335.269C286.249 329.627 277.383 318.331 278.661 312.572C279.668 311.355 279.845 310.547 280.477 309.063Z" fill="#FC4517"/>
<path d="M440.05 335.491C437.395 341.468 432.66 351.41 431.205 357.524L297.697 357.326C295.514 350.022 291.156 342.1 289.658 336.687C341.261 354.579 388.73 355.009 440.05 335.491Z" fill="#C51903"/>
<path d="M280.477 309.063C285.42 314.218 316.364 321.374 324.933 322.567C358.145 327.191 393.475 326.508 425.96 317.575C433.275 315.564 442.905 312.621 449.02 308.123C449.385 309.531 449.58 311.139 450.565 312.084C443 315.721 434.96 320.24 426.955 322.853C387.32 335.791 338.911 335.866 299.53 322.006C292.338 319.475 285.076 316.568 278.661 312.572C279.668 311.355 279.845 310.547 280.477 309.063Z" fill="#8E0C03"/>
<path d="M503.34 284.327C513.315 288.514 517.155 289.576 527.99 290.885C518.12 316.449 470.485 320.574 450.515 307.549C452.5 307.142 455.38 307.07 457.48 306.832C475.995 304.732 492.19 300.268 503.34 284.327Z" fill="#C51903"/>
<path d="M200.503 291.237C211.064 290.183 215.032 288.922 224.823 285.134C234.528 297.987 244.691 303.637 260.729 305.981C265.871 306.733 274.454 307.107 279.159 308.311C275.894 308.793 269.727 312.059 265.87 312.928C243.763 317.908 211.481 314.029 200.503 291.237Z" fill="#C51903"/>
<path d="M319.103 185.083C350.367 173.712 377.06 173.931 408.43 184.671L407.28 190.591C384.87 179.434 349.778 180.381 326.328 188.346C324.337 189.033 322.355 189.75 320.385 190.495C320.09 188.851 319.509 186.747 319.103 185.083Z" fill="#FEB73D"/>
<path d="M308.118 189.785L310.162 195.144C294.092 202.546 279.479 217.774 269.996 232.55C268.036 235.603 264.971 242.516 263.055 244.584C271.276 219.889 285.937 202.798 308.118 189.785Z" fill="#FEB73D"/>
<path d="M417.475 195.602L419.825 189.931C441.745 203.032 454.815 217.584 463.925 241.495C462.265 240.395 458.915 232.989 457.375 230.743C449.225 218.87 431.025 200.759 417.475 195.602Z" fill="#FEB73D"/>
<path d="M307.645 226.361C318.369 224.973 328.199 232.512 329.64 243.229C331.081 253.947 323.592 263.814 312.881 265.308C302.096 266.812 292.144 259.258 290.693 248.466C289.242 237.673 296.845 227.759 307.645 226.361Z" fill="#091424"/>
<path d="M310.25 229.99C319.31 230.585 321.335 238.925 312.55 242.576C303.778 242.542 300.921 234.128 310.25 229.99Z" fill="#FEFFFF"/>
<path d="M416.625 226.534C427.28 226.283 436.145 234.667 436.49 245.32C436.835 255.973 428.53 264.913 417.88 265.352C407.095 265.796 398.02 257.363 397.67 246.576C397.32 235.79 405.835 226.787 416.625 226.534Z" fill="#091424"/>
<path d="M413.225 230.01C421.985 230.123 424.62 238.499 415.595 242.742C406.38 242.964 404.355 234.378 413.225 230.01Z" fill="#FEFFFF"/>
<path d="M342.652 253.916C349.788 255.791 351.845 265.419 364.265 265.959C376.96 266.512 378.705 254.387 386.175 254.634C389.97 257.075 387.92 262.252 386.285 265.422C380.465 272.375 373.6 276.165 364.285 276.058C356.38 275.94 348.859 272.628 343.435 266.876C339.75 262.916 336.834 257.481 342.652 253.916Z" fill="#091424"/>
<path d="M521.555 369.939C532.61 370.129 606.155 368.869 610.1 370.704C612.435 371.789 613.295 374.309 614.11 376.554C614.89 435.609 613.8 495.654 614.07 554.869C560.305 554.629 505.405 555.574 451.82 554.564C476.87 542.324 497.93 522.389 502.34 493.569C502.935 490.944 503.21 487.879 503.535 485.179C514.535 485.179 525.53 485.269 536.525 485.439C536.92 488.159 536.67 499.339 536.66 502.834C536.55 515.704 536.565 528.579 536.705 541.454C538.105 544.099 539.845 546.979 543.21 547.129C559.86 547.889 576.745 547.689 593.41 547.444C596.655 547.394 598.465 544.424 600.045 541.974C600.85 535.959 600.515 528.614 600.525 522.434L600.565 489.034L600.265 441.274C600.26 431.539 600.395 421.794 600.215 412.069C600.3 406.779 596.64 403.119 591.29 403.034C578.515 402.829 565.61 402.919 552.825 402.889C549.79 403.069 545.735 402.579 542.81 403.249C538.86 404.149 536.93 407.384 536.705 411.099C536.375 416.684 536.515 422.359 536.525 427.844L536.59 460.994L502.575 461.014C495.72 424.664 465.705 396.084 429.255 390.409C425.28 389.789 421.265 389.249 417.275 388.734C418.945 387.809 426.395 379.434 427.835 377.514L428.285 377.454C430.7 374.719 432.77 372.584 435.37 370.014L476.145 369.999C477.685 372.684 478.675 374.449 480.53 376.934C485.555 382.759 491.34 387.694 499.49 388.139C504.795 388.469 510.01 386.634 513.94 383.059C515.715 381.454 517.615 379.149 518.83 377.079C520.425 373.964 520.69 373.389 521.555 369.939Z" fill="#294756"/>
<path d="M521.555 369.939C532.61 370.129 606.155 368.869 610.1 370.704C612.435 371.789 613.295 374.309 614.11 376.554C613.24 377.514 613.23 377.549 611.495 377.489C601.605 377.139 521.925 378.179 518.83 377.079C520.425 373.964 520.69 373.389 521.555 369.939Z" fill="#B9CBD1"/>
<path d="M435.37 370.014L476.145 369.999C477.685 372.684 478.675 374.449 480.53 376.934C478.01 378.014 434.42 377.464 428.285 377.454C430.7 374.719 432.77 372.584 435.37 370.014Z" fill="#B9CBD1"/>
<path d="M503.535 485.179C514.535 485.179 525.53 485.269 536.525 485.439C536.24 488.649 536.21 490.754 536.235 493.974C531.195 493.979 505.32 494.279 502.34 493.569C502.935 490.944 503.21 487.879 503.535 485.179Z" fill="#6E8997"/>
<path d="M512.28 523.869C517.76 523.229 522.735 527.109 523.45 532.579C524.16 538.049 520.34 543.079 514.875 543.859C511.285 544.369 507.69 542.909 505.475 540.034C503.26 537.159 502.76 533.314 504.165 529.969C505.575 526.624 508.675 524.294 512.28 523.869Z" fill="#B9CBD1"/>
<path d="M547.03 142.804C555.23 145.805 560.935 149.932 567.23 156.035C581.245 169.485 589.31 187.975 589.64 207.399C590.72 227.117 585.275 246.191 572.225 261.199C554.14 281.996 521.03 287.034 500.18 267.493C492.415 260.218 487.285 249.376 487.06 238.681L487.05 237.763C488.45 221.919 503.535 214.327 514.595 205.178C534.63 188.605 544.345 168.381 547.03 142.804Z" fill="#FC4517"/>
<path d="M487.05 237.763C490.64 239.641 494.795 243.756 499.015 245.992C528.25 261.495 564.715 248.04 582.16 221.273C585.09 216.782 587.025 212.003 589.64 207.399C590.72 227.117 585.275 246.191 572.225 261.199C554.14 281.996 521.03 287.034 500.18 267.493C492.415 260.218 487.285 249.376 487.06 238.681L487.05 237.763Z" fill="#C51903"/>
<path d="M558.155 162.031C571.225 165.42 569.955 187.502 564.79 196.884C563.24 199.7 561.87 200.632 559.215 202.305C549.11 205.042 549.785 190.1 550.39 183.865C551.125 176.302 550.885 166.366 558.155 162.031Z" fill="#FEDEAE"/>
<path d="M140.085 199.945C141.092 176.595 158.164 152.6 179.547 143.352C181.112 153.539 183.011 163.214 187.194 172.746C192.045 183.508 199.01 193.185 207.676 201.202C219.935 212.426 237.324 219.864 241.38 236.027C243.849 264.687 217.047 283.334 190.336 279.149C155.339 273.666 134.967 232.608 140.085 199.945Z" fill="#FC4517"/>
<path d="M140.085 199.945C140.044 203.705 139.925 205.173 141.19 208.726C152.264 239.835 189.468 261.45 221.619 249.459C229.937 246.357 235.687 242.769 241.38 236.027C243.849 264.687 217.047 283.334 190.336 279.149C155.339 273.666 134.967 232.608 140.085 199.945Z" fill="#C51903"/>
<path d="M163.612 162.993C169.097 162.471 171.938 166.666 172.903 171.486C174.495 179.429 179.491 200.526 168.916 203.463C160.978 201.287 157.71 193.197 157.118 185.712C156.452 177.289 156.754 168.799 163.612 162.993Z" fill="#FEDEAE"/>
<path d="M211.025 376.439C221.953 392.019 237.148 391.754 248.789 377.234C276.664 377.759 305.994 377.459 333.931 377.284C330.833 380.739 326.474 384.799 323.825 388.074C322.016 389.689 320.237 391.339 318.49 393.024C341.093 393.269 364.58 392.894 387.045 393.489C377.315 397.549 371.865 400.074 362.965 405.909C359.37 405.229 341.895 405.459 337.581 405.459L282.774 405.479C258.003 392.124 236.971 387.419 208.86 395.329C199.397 397.989 194.795 400.974 186.296 405.729C165.406 421.799 155.137 434.869 149.626 461.064L114.139 461.044L114.134 405.444L114.149 393.019L190.617 392.919L195.07 388.199C197.17 386.229 204.856 379.289 205.594 377.109C207.469 377.094 209.423 377.294 211.025 376.439Z" fill="#B9CBD1"/>
<path d="M114.134 405.444L160.907 405.409C167.513 405.409 180.197 405.074 186.296 405.729C165.406 421.799 155.137 434.869 149.626 461.064L114.139 461.044L114.134 405.444Z" fill="#294756"/>
<path d="M133.317 416.349C138.619 414.919 144.091 417.999 145.615 423.274C147.138 428.554 144.15 434.079 138.9 435.689C135.423 436.759 131.641 435.869 129.006 433.359C126.371 430.854 125.293 427.119 126.187 423.594C127.08 420.069 129.806 417.299 133.317 416.349Z" fill="#B9CBD1"/>
<path d="M627.205 372.769C635.2 376.924 653.04 383.349 658.975 387.559C659.43 391.579 659.16 401.014 659.155 405.489L659.15 438.704L659.11 549.584L627.165 549.579L627.22 379.109L627.205 372.769Z" fill="#294756"/>
<path d="M627.205 372.769C635.2 376.924 653.04 383.349 658.975 387.559C658.745 389.009 658.805 389.139 658.16 390.424C656.06 390.139 652.89 388.534 650.7 387.769C643.69 385.324 634.185 380.659 627.22 379.109L627.205 372.769Z" fill="#435D6E"/>
<path d="M640.095 465.044C642.415 464.924 646.78 464.844 647.8 467.749C649.21 472.319 648.865 477.624 648.85 482.459C648.825 488.139 649.03 494.194 648.4 499.824C648.19 501.724 646.015 502.884 644.535 503.744C634.58 504.474 636.31 497.709 636.22 490.244C636.135 483.074 636.12 475.654 636.72 468.524C636.86 466.874 638.825 465.849 640.095 465.044Z" fill="#091424"/>
<path d="M642.25 512.624C650.17 513.549 649.215 520.959 649.19 527.239C649.165 532.769 649.495 538.199 643.52 540.024C633.59 539.444 636.985 531.634 636.375 523.899C635.875 517.594 635.705 514.079 642.25 512.624Z" fill="#091424"/>
<path d="M639.96 399.034C642.815 398.929 645.54 398.624 647.285 401.469C650.02 405.929 649.36 412.329 648.475 417.269C648.045 419.699 647.19 420.179 645.21 421.474C644.325 421.504 641.395 421.629 640.72 421.389C634.04 419.054 636.325 407.369 637.115 402.014C637.335 400.539 638.835 399.694 639.96 399.034Z" fill="#091424"/>
<path d="M639.385 432.624C650.985 431.429 649.495 440.754 648.625 449.439C648.35 452.174 647.525 452.854 645.325 454.399C634.62 455.999 635.995 445.684 636.54 438.279C636.76 435.324 637.005 434.499 639.385 432.624Z" fill="#091424"/>
<path d="M282.774 405.479L337.581 405.459C341.895 405.459 359.37 405.229 362.965 405.909C359.86 409.094 355.921 411.949 352.693 415.104C307.652 459.144 324.75 534.499 383.85 555.004C376.285 554.264 357.755 554.739 349.42 554.719L273.107 554.594C285.535 548.929 296.453 540.414 304.974 529.744C319.395 511.539 324.519 490.574 321.884 467.679C319.731 448.979 310.614 429.774 296.887 416.859C292.606 412.829 287.436 409.149 282.774 405.479Z" fill="#294756"/>
<path d="M325.836 514.879C326.476 515.704 330.603 523.439 331.431 524.849C336.195 532.949 340.217 538.239 346.731 544.879C340.895 544.449 332.845 544.629 326.832 544.614L305.755 544.544C314.624 536.314 321.493 526.169 325.836 514.879Z" fill="#091424"/>
<path d="M114.155 485.339C125.592 485.224 137.029 485.184 148.467 485.214C148.896 488.489 149.283 490.799 149.992 494.024C155.144 516.704 167.029 534.479 186.888 546.944C192.095 550.214 197.645 552.909 203.439 554.969C198.417 554.519 193.646 554.719 188.625 554.644C163.901 554.289 138.834 555.309 114.151 554.669L114.134 494.009L114.155 485.339Z" fill="#294756"/>
<path d="M114.155 485.339C125.592 485.224 137.029 485.184 148.467 485.214C148.896 488.489 149.283 490.799 149.992 494.024L114.134 494.009L114.155 485.339Z" fill="#6E8997"/>
<path d="M136.284 523.909C141.746 523.439 146.576 527.434 147.146 532.884C147.717 538.339 143.817 543.244 138.377 543.914C134.764 544.364 131.192 542.824 129.035 539.894C126.878 536.959 126.474 533.089 127.977 529.774C129.48 526.459 132.657 524.214 136.284 523.909Z" fill="#B9CBD1"/>
<path d="M114.174 564.879C117.048 564.774 119.972 564.694 122.846 564.739C139.992 565.004 157.431 564.224 174.547 564.924L385.16 564.904C420.095 564.899 456.95 564.179 491.66 564.869C488.75 567.344 485.9 569.889 483.105 572.494L382.67 572.449C375.26 572.894 364.53 572.584 356.945 572.584L309.063 572.564L185.613 572.529C162.136 572.479 137.606 571.934 114.202 572.474L114.174 564.879Z" fill="#435D6E"/>
<path d="M114.174 564.879C117.048 564.774 119.972 564.694 122.846 564.739C139.992 565.004 157.431 564.224 174.547 564.924L174.539 572.059L325.158 572.149L362.575 572.099C367.705 572.094 377.925 571.864 382.67 572.449C375.26 572.894 364.53 572.584 356.945 572.584L309.063 572.564L185.613 572.529C162.136 572.479 137.606 571.934 114.202 572.474L114.174 564.879Z" fill="#294756"/>
<path d="M68.7532 377.299C66.3257 376.069 64.8522 374.069 65.6367 371.259C66.6282 370.129 68.4677 369.314 69.6217 369.514C73.6497 370.209 94.2957 368.109 96.2712 371.034C99.2827 375.489 98.1427 413.234 98.1407 418.379L98.1107 492.424L98.1167 567.194C98.1102 572.119 98.8192 599.114 97.3102 601.034C95.2522 601.954 92.7277 601.724 90.6452 600.949C89.6652 599.949 89.2052 599.714 89.1827 598.019C89.0882 590.969 89.1267 583.799 89.1267 576.749L89.1302 534.719L89.0962 399.784C88.9092 398.059 88.9287 396.949 87.8152 395.524C82.6017 388.854 73.9967 383.744 68.7532 377.299Z" fill="#B9CBD1"/>
<path d="M68.7532 377.299C75.3442 377.384 82.4237 377.339 88.9732 377.579C89.1032 384.979 89.1447 392.384 89.0962 399.784C88.9092 398.059 88.9287 396.949 87.8152 395.524C82.6017 388.854 73.9967 383.744 68.7532 377.299Z" fill="#294756"/>
<path d="M252.993 369.939C272.897 368.849 300.649 369.709 321.048 369.784L435.37 370.014C432.77 372.584 430.7 374.719 428.285 377.454L427.835 377.514C426.395 379.434 418.945 387.809 417.275 388.734C409.21 387.914 393.025 388.444 384.425 388.414C364.225 388.169 344.025 388.059 323.825 388.074C326.474 384.799 330.833 380.739 333.931 377.284C305.994 377.459 276.664 377.759 248.789 377.234C250.205 374.894 251.621 372.324 252.993 369.939Z" fill="#FEFFFF"/>
<path d="M333.931 377.284C339.594 376.869 347.431 377.069 353.272 377.074L386.79 377.094L412.18 377.124C416.71 377.129 423.515 376.949 427.835 377.514C426.395 379.434 418.945 387.809 417.275 388.734C409.21 387.914 393.025 388.444 384.425 388.414C364.225 388.169 344.025 388.059 323.825 388.074C326.474 384.799 330.833 380.739 333.931 377.284Z" fill="#FB8E16"/>
<path d="M444.18 357.83C448.765 341.265 458.615 320.903 479.655 323.877C487.56 324.994 495.78 329.357 500.61 335.823C503.51 339.676 504.935 342.144 506.81 346.68L507.04 347.3C509.465 353.948 510.935 364.164 507.825 370.384C499.36 387.329 483.16 359.36 479.515 352.11C479.205 350.618 472.765 341.925 471.44 342.666C460.16 348.974 457.625 354.827 444.18 357.83Z" fill="#FC4517"/>
<path d="M506.81 346.68C506.9 350.327 506.65 354.307 501.41 352.641C496.08 350.947 485.275 341.003 487.145 334.869C490.435 330.961 496.945 334.168 500.61 335.823C503.51 339.676 504.935 342.144 506.81 346.68Z" fill="#FEDEAE"/>
<path d="M227.676 337.348C232.337 330.473 239.955 325.99 248.013 324.371C269.024 320.148 279.606 340.567 284.443 357.275C273.55 354.688 265.684 348.025 257.661 342.873C254.213 340.659 245.202 358.982 244.26 360.799C229.032 386.729 213.042 375.304 221.842 348.212C223.423 343.691 225.063 341.245 227.676 337.348Z" fill="#FC4517"/>
<path d="M227.676 337.348C231.515 334.789 237.465 330.049 241.465 335.297C244.116 344.143 224.588 361.914 221.842 348.212C223.423 343.691 225.063 341.245 227.676 337.348Z" fill="#FEDEAE"/>
<path d="M114.068 377.129C114.08 373.349 115.398 370.504 119.688 370.294C129.412 369.824 139.275 370.029 149.024 370.034L208.787 370.019C209.477 372.959 209.747 373.694 211.025 376.439C209.423 377.294 207.469 377.094 205.594 377.109C204.856 379.289 197.17 386.229 195.07 388.199C185.916 387.724 175.282 387.959 166.067 387.964L114.138 387.879C114.195 384.299 114.172 380.714 114.068 377.129Z" fill="#FB8E16"/>
<path d="M114.068 377.129C114.08 373.349 115.398 370.504 119.688 370.294C129.412 369.824 139.275 370.029 149.024 370.034L208.787 370.019C209.477 372.959 209.747 373.694 211.025 376.439C209.423 377.294 207.469 377.094 205.594 377.109C176.298 377.849 143.567 377.254 114.068 377.129Z" fill="#FEFFFF"/>
<path d="M412.625 457.324C424.1 455.494 434.895 463.299 436.755 474.769C438.615 486.239 430.84 497.049 419.375 498.939C407.865 500.834 397.01 493.024 395.14 481.514C393.275 470.004 401.11 459.164 412.625 457.324Z" fill="#FEFFFF"/>
<path d="M413.41 464.944C420.57 463.544 427.54 468.099 429.13 475.214C430.72 482.329 426.35 489.419 419.28 491.199C414.535 492.394 409.515 490.914 406.175 487.344C402.83 483.774 401.69 478.669 403.195 474.014C404.7 469.359 408.61 465.884 413.41 464.944Z" fill="#294756"/>
<path d="M235.188 457.404C246.695 456.869 256.474 465.724 257.081 477.229C257.688 488.734 248.896 498.569 237.397 499.254C225.791 499.939 215.843 491.049 215.231 479.439C214.618 467.829 223.574 457.939 235.188 457.404Z" fill="#FEFFFF"/>
<path d="M235.668 464.939C242.926 464.679 249.064 470.259 249.491 477.509C249.917 484.764 244.475 491.024 237.236 491.619C232.404 492.014 227.738 489.759 225.041 485.729C222.344 481.704 222.04 476.529 224.246 472.214C226.452 467.894 230.823 465.114 235.668 464.939Z" fill="#294756"/>
<path d="M550.35 417.929C550.43 416.564 551.535 413.699 552.885 413.619C559.41 413.234 581.345 411.824 586.545 413.719C588.03 415.094 588.01 415.504 588.645 417.524L588.545 418.359C585.145 449.434 601.095 452.099 555.315 449.314C547.225 448.824 551.055 425.009 550.35 417.929Z" fill="#FD7719"/>
<path d="M550.35 417.929C550.43 416.564 551.535 413.699 552.885 413.619C559.41 413.234 581.345 411.824 586.545 413.719C588.03 415.094 588.01 415.504 588.645 417.524C588.305 417.769 587.96 418.019 587.62 418.264C579 418.509 557.985 418.989 550.35 417.929Z" fill="#FEDEAE"/>
<path d="M365.045 424.884C366.31 425.329 368.25 430.374 368.96 432.024C373.97 443.609 381.835 453.589 392.46 460.834C389.815 465.024 388.45 468.399 386.815 473.019C381.82 472.559 377.715 472.199 372.755 471.289C360.62 468.219 352.942 465.164 343.726 456.549C347.794 442.759 353.428 433.409 365.045 424.884Z" fill="#FEFFFF"/>
<path d="M185.664 424.949L186.276 425.349C192.339 441.609 199.24 450.074 212.281 461.179C210.206 465.584 208.895 468.644 207.252 473.214C201.845 473.074 197.995 472.464 192.729 471.394C181.415 468.514 172.775 465.289 164.516 456.509C167.334 443.699 174.888 432.429 185.664 424.949Z" fill="#FEFFFF"/>
<path d="M408.085 404.709C418.685 403.184 428.925 405.939 438.37 410.519C428.74 420.439 424.095 430.384 420.465 443.399L418.83 450.079C414.475 450.479 411.06 450.774 406.745 451.664C402.015 440.749 398.295 430.274 398.52 418.164C398.72 407.724 397.435 406.159 408.085 404.709Z" fill="#DDDFE0"/>
<path d="M229.283 405.219C239.819 404.199 248.388 406.679 257.904 410.944C248.169 420.974 243.323 430.989 239.863 444.319L238.925 450.429C234.425 450.514 230.826 451.034 226.424 451.834C219.804 436.699 216.505 423.709 219.52 407.224C223.522 405.924 225.123 405.674 229.283 405.219Z" fill="#DDDFE0"/>
<path d="M454.925 471.229C467.355 470.194 479.4 471.989 490.215 478.374C490.04 492.534 487.205 500.819 479.57 512.474L479.055 512.884C477.76 512.344 475.34 508.699 474.04 507.209C471.16 503.909 468.01 500.849 464.625 498.064C457.83 492.484 452.73 489.984 444.865 486.499C445.965 481.294 445.75 477.669 445.565 472.374C448.445 471.889 451.965 471.564 454.925 471.229Z" fill="#DDDFE0"/>
<path d="M274.663 471.229C285.91 469.684 300.27 472.694 310.032 478.759C308.194 495.069 308.442 497.099 299.611 512.114L298.95 512.854L298.047 512.674C288.81 500.054 278.84 493.034 265.035 486.489C265.841 481.679 265.64 477.174 265.538 472.329C268.47 471.899 271.696 471.579 274.663 471.229Z" fill="#DDDFE0"/>
<path d="M550.035 468.339C550.945 467.044 552.4 464.704 554.13 464.634C564.12 464.249 574.42 464.224 584.405 464.714C588.445 464.914 588.84 467.719 588.855 471.024C588.625 476.334 589.9 489.254 587.66 492.859C582.6 496.559 569.25 494.789 562.94 495.114C549.165 495.819 549.85 491.204 550.225 479.609C550.32 476.689 550.435 471.349 550.035 468.339Z" fill="#B9CBD1"/>
<path d="M550.035 468.339C550.945 467.044 552.4 464.704 554.13 464.634C564.12 464.249 574.42 464.224 584.405 464.714C588.445 464.914 588.84 467.719 588.855 471.024C583.83 471.064 553.89 471.669 551.01 470.584L550.035 468.339Z" fill="#FEFFFF"/>
<path d="M550.32 515.259C550.71 506.309 559.18 507.504 566.47 508.009C574.9 508.594 587.045 504.754 589.685 513.959L589.645 514.449C589.175 520.864 590.7 530.894 588.31 536.034C584.355 538.854 553.84 539.289 551.145 535.944C549.23 530.974 550.69 521.004 550.32 515.259Z" fill="#DDDFE0"/>
<path d="M550.32 515.259C550.71 506.309 559.18 507.504 566.47 508.009C574.9 508.594 587.045 504.754 589.685 513.959C588.93 515.084 588.995 515.534 587.89 515.554C578.24 515.739 559.255 516.294 550.32 515.259Z" fill="#FEFFFF"/>
<path d="M215.965 155.797C233.08 165.279 244.947 185.707 247.153 204.808C247.442 207.307 248.309 217.279 246.793 219.157C242.207 215.093 237.499 211.168 232.677 207.388C226.631 202.626 218.026 197.068 214.965 190.014C215.217 185.312 216.159 180.097 216.468 175.196C216.909 168.182 216.476 162.752 215.965 155.797Z" fill="#FC4517"/>
<path d="M509.325 155.942L509.715 156.017C510.21 156.898 509.825 163.413 509.57 164.693C508.23 171.481 514.1 188.894 509.71 193.867C501.415 203.268 490.99 209.728 482.085 218.681L481.195 219.214C478.83 216.857 480.95 201.199 481.61 197.846C485.105 180.197 494.645 166.216 509.325 155.942Z" fill="#FC4517"/>
<path d="M219.62 502.999C224.739 505.979 227.258 507.064 233.115 507.844C233.245 522.594 231.92 531.834 224.683 544.719C218.216 543.964 214.437 543.414 208.294 541.364C200.593 538.214 195.784 534.794 190.186 528.804C203.064 522.389 211.388 514.579 219.62 502.999Z" fill="#B9CBD1"/>
<path d="M399.205 502.809C404.615 506.184 406.91 506.599 413.085 507.839C413.165 521.359 411.205 533.004 404.525 544.829C398.865 543.574 393.45 542.494 387.96 540.604C380.635 537.834 375.735 533.994 370.32 528.499C382.805 522.174 391.37 514.209 399.205 502.809Z" fill="#B9CBD1"/>
<path d="M347.821 580.624L376.885 580.549C379.965 580.554 388.51 580.374 391.21 580.869C391.285 587.359 391.27 593.854 391.175 600.344C385.305 600.239 378.49 599.989 372.67 600.139L363.125 600.104L357.18 600.169C353.983 600.259 350.377 600.139 347.144 600.104L347.482 598.449C347.489 592.804 347.367 586.614 347.681 581.019L347.821 580.624Z" fill="#FC4517"/>
<path d="M379.315 581.074L391.21 580.869C391.285 587.359 391.27 593.854 391.175 600.344C385.305 600.239 378.49 599.989 372.67 600.139C372.275 597.339 372.43 592.834 372.715 590.014C372.96 592.394 372.925 596.209 372.965 598.719L379.505 598.454C379.56 592.659 379.495 586.864 379.315 581.074Z" fill="#FEB73D"/>
<path d="M347.681 581.019L356.626 580.964C356.62 584.064 356.395 596.449 357.13 598.799L357.18 600.169C353.983 600.259 350.377 600.139 347.144 600.104L347.482 598.449C347.489 592.804 347.367 586.614 347.681 581.019Z" fill="#FEB73D"/>
<path d="M363.43 580.939L372.69 581.044C372.75 584.034 372.76 587.024 372.715 590.014C372.43 592.834 372.275 597.339 372.67 600.139L363.125 600.104L363.2 598.499C363.69 595.864 363.45 584.174 363.43 580.939Z" fill="#FEB73D"/>
<path d="M357.13 598.799C359.26 598.629 361.045 598.454 363.2 598.499L363.125 600.104L357.18 600.169L357.13 598.799Z" fill="#FB8E16"/>
<path d="M307.751 580.624C320.766 580.519 334.846 580.304 347.821 580.624L347.681 581.019C347.367 586.614 347.489 592.804 347.482 598.449L347.144 600.104L341.132 600.164C337.837 600.279 333.96 600.154 330.618 600.124L325.171 600.209C321.352 600.369 317.272 600.209 313.428 600.129L308.132 600.144L308.046 598.604C308.103 594.014 308.293 585.064 307.751 580.624Z" fill="#FC4517"/>
<path d="M314.568 580.869L324.622 580.984C324.648 584.584 324.53 595.709 325.134 598.759L325.171 600.209C321.352 600.369 317.272 600.209 313.428 600.129L314.568 598.359C314.63 592.529 314.63 586.699 314.568 580.869Z" fill="#FEB73D"/>
<path d="M331.428 580.859L340.861 580.899L340.977 598.579L341.132 600.164C337.837 600.279 333.96 600.154 330.618 600.124L331.355 598.414C331.812 593.734 331.534 585.719 331.428 580.859Z" fill="#FEB73D"/>
<path d="M340.977 598.579L347.482 598.449L347.144 600.104L341.132 600.164L340.977 598.579Z" fill="#FEB73D"/>
<path d="M314.568 598.359L313.428 600.129L308.132 600.144L308.046 598.604L314.568 598.359Z" fill="#FB8E16"/>
<path d="M325.134 598.759L331.355 598.414L330.618 600.124L325.171 600.209L325.134 598.759Z" fill="#FB8E16"/>
<path d="M468.675 425.489C473.45 427.169 480.945 440.479 483.005 444.999C466.715 445.439 457.975 446.829 444.22 455.724L438.635 459.929C437.135 458.319 434.645 456.214 432.955 454.694C442.76 438.384 451.37 432.189 468.675 425.489Z" fill="#435D6E"/>
<path d="M288.627 425.524C294.6 430.149 299.566 438.259 302.748 444.989C287.569 444.984 276.696 447.454 264.132 455.909C262.495 457.009 260.263 459.039 258.706 460.369L252.624 454.839C261.579 439.444 272.252 431.724 288.627 425.524Z" fill="#435D6E"/>
<path d="M435.57 499.469C445.3 506.474 451.825 525.939 454.285 537.354C450.395 540.254 448.145 541.334 443.765 543.274C440.94 544.509 437.97 545.434 435.04 546.409C436.055 530.339 435.635 519.484 428.55 504.709C430.895 503.004 433.245 501.209 435.57 499.469Z" fill="#435D6E"/>
<path d="M255.639 499.434C255.774 499.524 255.909 499.619 256.043 499.714C266.615 510.899 271.56 523.524 274.035 537.769C270.7 540.414 268.127 541.664 264.321 543.449C260.796 544.889 258.796 545.439 255.078 546.399C256.309 529.394 255.649 520.379 248.861 504.809C251.648 502.849 253.106 501.704 255.639 499.434Z" fill="#435D6E"/>
<path d="M340.117 485.404C356.665 491.559 370.005 490.869 386.7 485.754L389.33 491.274C387.545 492.789 384.59 494.649 382.57 496.004C369.625 503.069 361.02 505.249 346.269 505.574C341.825 497.879 341.336 494.319 340.117 485.404Z" fill="#435D6E"/>
<path d="M160.881 485.539C176.215 491.299 192.11 490.944 207.578 485.749L209.795 491.359C207.986 492.784 205.397 494.359 203.419 495.644C191.1 502.894 181.101 505.334 166.99 505.484C162.924 498.774 161.389 493.259 160.881 485.539Z" fill="#435D6E"/>
<path d="M290.214 580.584C295.068 580.559 302.42 580.324 307.051 580.634L307.751 580.624C308.293 585.064 308.103 594.014 308.046 598.604L308.132 600.144C304.543 600.239 300.791 600.149 297.188 600.114L290.425 600.134C286.277 600.319 282.29 600.184 278.149 600.079L278.136 580.659C282.143 580.589 286.202 580.604 290.214 580.584Z" fill="#FEB73D"/>
<path d="M278.136 580.659C282.143 580.589 286.202 580.604 290.214 580.584C290.275 585.784 290.26 590.984 290.17 596.179C290.154 597.704 290.067 598.634 290.425 600.134C286.277 600.319 282.29 600.184 278.149 600.079L278.136 580.659Z" fill="#FEB73D"/>
<path d="M290.214 580.584C295.068 580.559 302.42 580.324 307.051 580.634C303.344 580.909 300.861 580.894 297.128 580.789C297.113 584.829 296.828 595.199 297.488 598.749L297.188 600.114L290.425 600.134C290.067 598.634 290.154 597.704 290.17 596.179C290.26 590.984 290.275 585.784 290.214 580.584Z" fill="#FC4517"/>
<path d="M290.17 596.179C291.206 600.154 293.774 598.084 297.488 598.749L297.188 600.114L290.425 600.134C290.067 598.634 290.154 597.704 290.17 596.179Z" fill="#FB8E16"/>
<path d="M509.795 324.671C520.125 323.637 528.92 330.644 534.33 338.861C538.08 344.552 541.83 352.278 534.59 356.769C529.44 358.599 527.875 358.461 522.575 357.929C519.01 343.423 517.335 338.056 507.935 326.359L508.03 325.46L509.795 324.671Z" fill="#FC4517"/>
<path d="M216.771 324.664C218.36 324.673 220.654 325.018 222.285 325.207C212.147 339.851 210.902 339.23 206.377 357.989C202.264 358.183 200.479 358.26 196.548 357.195C185.851 353.067 192.205 342.891 197.024 336.727C201.924 330.46 208.798 325.565 216.771 324.664Z" fill="#FC4517"/>
<path d="M179.187 580.934C184.632 580.634 188.834 580.609 194.247 580.694C194.248 586.154 194.138 593.854 194.942 599.084L194.69 600.159C189.518 600.429 184.335 600.414 179.166 600.109L179.187 580.934Z" fill="#FEB73D"/>
<path d="M202.111 581.004C207.231 580.814 211.956 580.564 217.088 580.904L217.168 600.404L204.034 600.384C202.741 600.059 202.743 600.139 201.715 599.329C202.083 593.254 202.058 587.094 202.111 581.004Z" fill="#FEB73D"/>
<path d="M231.518 580.759C235 580.614 238.666 580.704 242.168 580.734C242.18 585.054 242.481 596.074 241.907 599.834C240.757 600.634 239.309 600.369 237.814 600.334C234.281 600.389 230.686 600.254 227.148 600.159C227.127 595.869 226.83 585.094 227.397 581.464C228.529 580.659 230.041 580.819 231.518 580.759Z" fill="#FEB73D"/>
<path d="M252.992 580.744C257.865 580.639 262.548 580.814 267.411 580.969C267.513 587.214 267.7 594.184 267.172 600.344C262.294 600.364 257.415 600.294 252.539 600.134C252.489 596.774 252.137 583.269 252.992 580.744Z" fill="#FEB73D"/>
<path d="M72.9702 512.269L80.0187 512.024C80.0482 516.389 80.6847 543.659 79.4572 545.819L72.1367 545.634C72.1342 540.904 71.1582 514.269 72.9702 512.269Z" fill="#B9CBD1"/>
<path d="M72.1297 448.549L79.8492 448.344C80.1977 459.039 79.9617 471.304 79.9802 482.104L72.0897 482.064L72.1297 448.549Z" fill="#DDDFE0"/>
<path d="M194.942 599.084C197.632 598.919 199.04 598.709 201.715 599.329C202.743 600.139 202.741 600.059 204.034 600.384C201.319 600.454 198.034 600.084 194.69 600.159L194.942 599.084Z" fill="#AA8647"/>
<path d="M448.83 0.89493C466.82 0.67043 484.72 1.06193 502.625 0.949435C529.14 0.782935 554.645 0.321428 581.06 3.67043C583.115 3.93093 590.525 4.63592 592.02 5.27342C605.155 7.44992 624.575 11.6189 636.655 17.7794C637.38 20.1639 636.98 19.7329 635.88 22.6849L642.14 21.6934C638.7 23.5469 633.185 26.3024 630.055 28.3544L629.935 29.3339C628.54 30.1579 627.75 30.7129 626.24 31.3139C622.405 37.3589 622.49 38.7809 615.26 37.6279C613 37.2669 606.45 40.5769 603.195 41.2839C604.08 44.4229 603.425 45.9894 601.83 48.8704L601.245 48.5029L601.545 48.9844L602.245 47.9424L602.1 48.2104L601.145 48.3894C599.25 45.5199 596.81 45.9364 593.7 46.1709L593.88 46.4574C595.825 46.6844 598.245 46.7329 599.825 47.7434L599.88 48.5794L598.51 49.5894C592.25 52.1884 584.475 56.1904 577.725 56.2714C572.55 56.3339 566.45 57.1874 561.485 57.2174L561.09 56.9174L561.32 56.4454C559.09 54.3794 543.01 52.2134 539.335 51.6184C534.795 51.1194 532.565 50.9399 527.935 50.9334C520.45 51.8809 514.06 53.7019 507.71 54.5564C506.185 51.8159 500.545 39.1854 499.91 36.5024C496.965 36.6819 491.235 37.7394 487.805 38.0889C478.5 39.0364 472.1 38.1029 463.015 36.4794C462.535 34.0514 460.245 30.4589 461.99 28.5704L461.675 28.2829C460.3 28.4224 460.95 28.5819 459.67 27.9619C457.045 22.5134 450.11 6.56543 448.83 0.89493Z" fill="#17C7F3"/>
<path d="M448.83 0.89493C466.82 0.67043 484.72 1.06193 502.625 0.949435C529.14 0.782935 554.645 0.321428 581.06 3.67043C583.115 3.93093 590.525 4.63592 592.02 5.27342L591.035 5.85893C592.265 6.03693 593.22 6.01293 594.22 6.60393C589.39 7.79243 577.675 6.86343 572.085 6.73293C569.205 8.33243 566.265 10.0364 563.465 11.7614C555.545 16.6344 546.035 19.8504 538.03 24.2719C533.515 25.1124 524.875 29.6744 519.21 30.9249L518.59 31.1229C512.14 33.3224 507.42 35.0899 500.73 36.2689L499.91 36.5024C496.965 36.6819 491.235 37.7394 487.805 38.0889C478.5 39.0364 472.1 38.1029 463.015 36.4794C462.535 34.0514 460.245 30.4589 461.99 28.5704L461.675 28.2829C460.3 28.4224 460.95 28.5819 459.67 27.9619C457.045 22.5134 450.11 6.56543 448.83 0.89493Z" fill="#85F1F8"/>
<path d="M461.675 28.2829C468.445 22.2824 484.09 20.6924 492.615 20.0714C494.345 25.5494 497.635 30.4409 499.63 35.8709L500.73 36.2689L499.91 36.5024C496.965 36.6819 491.235 37.7394 487.805 38.0889C478.5 39.0364 472.1 38.1029 463.015 36.4794C462.535 34.0514 460.245 30.4589 461.99 28.5704L461.675 28.2829Z" fill="#85F1F8"/>
<path d="M492.615 20.0714C502.18 19.7124 516.385 18.4769 519.21 30.9249L518.59 31.1229C512.14 33.3224 507.42 35.0899 500.73 36.2689L499.63 35.8709C497.635 30.4409 494.345 25.5494 492.615 20.0714Z" fill="#C9FCFC"/>
<path d="M504.015 8.65742C506.19 8.25842 505.26 8.08243 507.035 8.68793C508.805 10.4329 509.39 12.9254 510.255 15.3474C504.695 16.6509 494.385 16.4569 488.76 15.0304C484.65 14.9359 480.67 14.4569 476.61 13.8439C485.76 12.7119 493.71 9.93642 504.015 8.65742Z" fill="#85F1F8"/>
<path d="M635.88 22.6849L642.14 21.6934C638.7 23.5469 633.185 26.3024 630.055 28.3544L629.935 29.3339C628.54 30.1579 627.75 30.7129 626.24 31.3139C622.405 37.3589 622.49 38.7809 615.26 37.6279C613 37.2669 606.45 40.5769 603.195 41.2839C599.755 42.8574 592.705 44.8199 589.02 43.6034C576.23 43.0384 573.125 37.3699 559.685 37.8354L559.59 36.5364C571.135 31.3454 591.15 30.3424 604.235 27.9814C613.775 26.2584 626.475 23.7644 635.88 22.6849Z" fill="#85F1F8"/>
<path d="M589.02 43.6034C607.655 41.4569 614.59 35.3584 630.055 28.3544L629.935 29.3339C628.54 30.1579 627.75 30.7129 626.24 31.3139C622.405 37.3589 622.49 38.7809 615.26 37.6279C613 37.2669 606.45 40.5769 603.195 41.2839C599.755 42.8574 592.705 44.8199 589.02 43.6034Z" fill="#17C7F3"/>
<path d="M500.73 36.2689C507.42 35.0899 512.14 33.3224 518.59 31.1229C520.805 37.1464 526.95 46.8369 527.935 50.9334C520.45 51.8809 514.06 53.7019 507.71 54.5564C506.185 51.8159 500.545 39.1854 499.91 36.5024L500.73 36.2689Z" fill="#85F1F8"/>
<path d="M519.21 30.9249C524.875 29.6744 533.515 25.1124 538.03 24.2719C537.255 25.5784 536.905 25.5114 535.6 26.2494C535.09 28.5054 538.74 31.7414 540.295 33.4909C539.41 36.8574 536.545 47.8019 537.62 50.4869L539.335 51.6184C534.795 51.1194 532.565 50.9399 527.935 50.9334C526.95 46.8369 520.805 37.1464 518.59 31.1229L519.21 30.9249Z" fill="#57E2F8"/>
<path d="M559.59 36.5364L559.685 37.8354C558.105 38.2694 555.935 39.0259 554.4 38.8764C555.71 37.8059 557.84 37.2809 559.59 36.5364Z" fill="#85F1F8"/>
<path d="M580.975 19.2584L581.74 19.2719C580.485 20.4799 577.02 21.2744 575.19 21.9884C562.755 26.8409 556.55 27.5059 543.515 28.1719C542.755 28.1454 543.135 28.2569 542.41 27.7229C544.035 26.2884 547.245 26.2834 549.205 25.4184C559.72 20.7794 569.665 20.6229 580.975 19.2584Z" fill="#85F1F8"/>
</g>
<defs>
<clipPath id="clip0_144967_14999">
<rect width="738" height="711" fill="white"/>
</clipPath>
</defs>
</svg>
