<svg width="634" height="538" viewBox="0 0 634 538" fill="none" xmlns="http://www.w3.org/2000/svg">
<g clip-path="url(#clip0_144967_14893)">
<path d="M358.325 88.2385C365.645 65.078 373.645 48.014 390.955 30.133C408.905 11.478 433.66 0.911508 459.55 0.853008C471.225 0.717008 491.775 3.1295 502.135 11.4085C503.08 12.166 504.02 14.876 503.555 16.21C502.12 20.3475 497.85 18.818 494.96 17.878C490.78 16.5175 486.365 14.657 482.16 13.7675C464.545 10.0395 444.605 11.6265 428.16 19.0845C407 28.6795 391.18 45.768 380.905 66.3725C376.365 75.4815 373.7 83.6695 370.135 93.0215C391.175 104.452 403.105 117.58 415.08 137.997C414.26 103.89 425.025 67.054 459.855 53.677C474.475 48.0625 466.235 81.009 469.18 90.832L469.39 91.5025C476.17 81.0195 479.33 73.402 481.61 60.8345C482.5 55.916 482.76 50.759 484.365 46.065C492.025 38.0855 501.76 43.377 509.41 48.72C548.285 75.8605 557.735 134.44 530.275 172.804C518.67 189.015 503.16 200.197 483.4 203.73C476.97 213.535 472.755 216.502 464.69 224.519C483.19 234.636 492.09 246.985 495.045 267.99L550.895 267.859C558.585 267.866 573.54 267.406 580.475 268.668C589.735 270.567 599.1 275.264 607.765 278.365C634.39 287.9 633.17 296.8 632.995 321.92C632.895 331.965 632.86 342.015 632.89 352.06C633.03 388.535 633.55 426.525 632.995 462.91C631.17 465.355 625.275 470.9 622.815 473.315C616.995 478.97 611.24 484.69 605.56 490.485C603.76 492.29 598.5 497.24 596.14 497.475C588.425 498.255 579.215 497.93 571.425 497.91C555.19 497.965 538.955 497.905 522.72 497.73L366.96 497.145L367.045 502.45C367.04 508.065 367.71 512.625 363.445 516.955C362.895 517.51 361.745 518.38 361.39 518.97C354.675 520.425 342.51 519.965 335.115 519.96L295.163 519.975L190.765 519.925C171.139 519.895 151.356 519.95 131.728 519.7C127.097 519.64 124.601 519.315 120.254 517.8C114.188 510.945 116.079 504.585 116.006 495.61C112.06 495.52 108.319 495.425 104.375 495.535C104.127 498.345 103.95 503.995 101.699 505.495C95.628 509.535 74.8585 507.705 67.3045 508.02C67.048 513.45 67.335 514.91 64.4555 519.555C61.7595 521.735 61.077 522.02 57.878 523.37C49.0655 524.425 29.012 526.79 28.708 512.795C28.392 498.245 29.2245 483.7 28.702 469.005L28.057 468.425C11.573 468.21 12.268 463.54 12.34 448.105C12.392 437.04 12.046 425.685 12.885 414.635C13.146 411.195 15.693 409.525 18.2965 407.75C22.575 407.165 26.3555 407.495 30.8565 406.875C31.1685 405.995 31.3005 405.485 31.244 404.53C31.0635 401.485 18.958 402.31 15.6445 399.385C12.4675 396.58 12.067 391.57 11.944 387.545C11.744 380.98 10.8075 348.545 14.1515 345.16C18.204 341.065 23.722 341.825 29.002 341.91C28.6275 332.645 29.413 323.305 28.587 313.825C20.617 305.535 10.1785 297.505 3.08452 288.68C-1.85948 282.534 1.70601 268.378 11.4545 267.796C23.189 267.095 35.447 267.648 47.4195 267.787L99.981 267.979C110.341 267.997 122.644 268.309 132.858 267.823C133.232 265.576 133.68 263.342 134.202 261.125C138.531 243.281 147.789 233.895 162.715 224.799C152.245 216.01 151.251 214.503 143.129 203.437C138.839 202.315 134.649 200.844 130.598 199.041C110.657 189.898 95.14 173.24 87.4325 152.702C79.094 130.331 80.3055 103.264 90.4695 81.617C97.567 66.5005 111.082 49.2285 127.339 43.2315C147.713 35.7155 142.713 58.794 146.587 70.2555C148.312 75.36 152.718 88.388 157.517 90.992C161.419 86.9705 155.025 59.814 159.475 55.038C165.329 48.755 182.535 62.27 186.809 66.3615C208.317 86.952 211.525 109.27 212.516 137.568C224.352 116.748 235.666 105.36 256.215 93.394C248.175 73.8085 244.061 59.5945 228.978 42.7455C207.763 18.5785 177.16 7.38201 145.457 13.33C139.524 14.443 126.164 21.8675 122.041 16.6925C120.357 10.4625 133.832 5.87001 138.26 4.58351C163.196 -2.59599 189.971 0.540505 212.574 13.288C240.723 28.984 258.844 57.361 267.516 87.795C297.207 76.7615 329.045 73.2405 358.325 88.2385ZM178.613 359.36C183.324 358.085 188.24 356.79 193.155 356.905C194.211 353.995 195.316 350.755 196.521 347.935C201.549 336.595 206.205 331.37 214.702 322.495C202.926 316.31 192.049 314.935 178.807 316.195C176.895 316.415 172.852 316.55 171.977 318.16C166.348 328.5 173.071 350.955 178.613 359.36ZM225.744 379.235C224.23 379.535 222.615 379.815 221.139 380.235C221.464 386.52 221.611 388.345 220.02 394.425C237.36 404.975 240.034 410.7 251.296 426.05C252.402 424.75 253.495 423.565 254.399 422.115C257.823 416.075 270.432 387.97 260.996 383.22C252.882 379.135 235.082 378.64 225.744 379.235ZM359.085 359.02C364.19 358.16 368.615 357.39 373.795 356.955C374.93 353.905 376.64 348.84 377.965 346.03C383.765 334.93 386.855 331.24 395.765 322.455C384.125 315.615 369.88 315.06 356.64 316.185C354.705 316.78 352.87 316.905 352.045 318.94C348.655 327.28 352.825 344.76 355.94 352.51C356.825 354.755 357.88 356.93 359.085 359.02ZM330.32 379.375C334.245 380.13 338.45 380.475 342.445 380.885C343.835 376.74 345.35 373.38 347.115 369.405C332.3 356.055 328.935 349.61 320.805 331.98C312.245 339.715 303.117 352.48 301.137 363.95C299.829 371.515 324.725 378.325 330.32 379.375ZM189.057 414.705C184.385 413.48 180.06 412.345 175.74 410.145C175.212 409.875 175.359 409.95 174.763 409.785C166.119 422.11 156.235 430.825 142.439 436.845C147.371 442.39 155.482 447.205 162.36 449.865C166.263 451.2 177.731 455.295 180.671 453.02C188.414 447.035 188.951 422.54 189.057 414.705ZM166.339 369.08C160.101 362.015 155.608 358.635 150.059 350.23C147.788 346.785 141.786 333.17 140.459 332.31C128.603 342.77 123.929 352.12 119.152 366.88C126.674 372.32 137.673 377.58 146.898 379.115C151.563 380.085 157.061 380.76 161.839 381.14C163.313 376.44 164.192 373.545 166.339 369.08ZM322.465 437.17C328.92 442.75 333.295 446.11 341.2 449.535C345.08 451.065 357.87 455.34 360.76 453.53C369.13 448.29 370.16 422 370.015 414.67C363.69 413.14 361.215 412.475 355.495 409.535C346.54 422.67 337.325 430.925 322.465 437.17ZM25.8825 389.13C27.404 389.065 29.6115 389.18 30.7825 388.415C31.5595 385.215 31.8695 358.985 31.3385 355.305C29.8815 354.93 29.953 354.98 28.4415 355.175C26.5595 355.36 26.004 355.1 24.653 356.035C23.8605 359.85 23.632 385.72 25.0095 388.815L25.8825 389.13ZM402 380.09C402.04 385.735 402.335 388.525 400.72 393.95C416.615 403.5 422.35 410.105 432.695 425.16L435.02 422.21C442.925 409.305 445.3 399.545 444.95 384.625C435.62 379.85 418.385 378.03 408.04 379.18L402 380.09ZM30.9955 453.955C31.2175 453.72 31.439 453.485 31.661 453.255C31.7765 442.565 31.7625 431.875 31.8225 421.19L31.3595 420.35C29.542 419.915 28.8515 420.065 27.019 420.195L25.4945 420.795C24.2125 424.125 24.7555 448.285 25.142 452.985L25.605 453.705C27.7115 453.975 28.8535 453.965 30.9955 453.955Z" fill="#141F2C"/>
<path d="M270.996 98.688C302.199 86.3675 324.5 86.4265 355.945 98.5115L354.645 105.203C352.27 115.787 360 119.377 364.625 110.71L366.755 103.85C387.91 116.87 403.055 136.774 410.12 161.229C410.155 161.412 410.19 161.595 410.225 161.777C413.345 169.936 415.995 176.408 412.505 185.158C408.015 196.417 395.11 202.436 388.83 209.711C410.11 206.603 418.055 198.428 428.63 181.005C434.855 188.807 438.19 191.755 447 196.819C453.775 199.709 459.615 201.755 466.99 202.164C451.84 223.395 418.64 232.817 395.715 219.261C393.89 220.319 392.24 221.25 390.36 222.21L392.99 222.573L393.585 223.384C392.675 224.07 391.85 224.674 390.915 225.319L391.47 225.822C393.045 225.062 393.94 224.371 395.61 224.716C398.73 228.264 390.01 242.168 387.375 245.064C386.325 248.176 385.62 250.218 384.255 253.222C382.065 258.296 379.68 263.421 378.14 268.716L291.611 268.578C280.716 268.595 260.759 268.013 250.491 268.828C248.231 264.769 246.559 260.47 244.777 256.181C242.92 253.206 241.347 250.192 240.734 246.719C238.02 244.363 230.993 231.164 230.089 226.924C229.93 226.181 230.35 225.99 230.91 225.292C232.899 223.39 231.086 223.828 233.809 222.568C236.12 223.41 236.689 223.56 239.056 223.314C236.478 222.354 233.487 220.291 231.2 219.944C219.732 224.922 208.846 226.751 196.365 224.781C181.583 222.445 168.346 214.302 159.596 202.16C168.126 201.784 172.429 200.178 180.424 196.806C189.497 191.496 191.922 188.918 198.947 181.275C205.762 194.351 215.76 205.429 231.035 208.754C232.567 209.087 233.664 209.332 234.991 208.483C234.522 205.819 228.578 202.518 226.444 200.586C221.037 195.772 216.2 189.925 213.643 183.078C211.033 176.089 213.541 167.673 216.743 161.228C222.472 139.489 240.418 115.248 260.197 104.379C260.991 106.213 261.809 108.864 262.474 110.81C264.258 114.591 268.03 118.297 271.712 113.645C273.732 111.093 272.953 108.683 272.415 105.735L270.996 98.688Z" fill="#E04725"/>
<path d="M363.45 230.665C373.245 228.546 381.17 225.929 390.36 222.21L392.99 222.573L393.585 223.384C392.675 224.07 391.85 224.674 390.915 225.319L391.47 225.821C393.045 225.061 393.94 224.37 395.61 224.716C398.73 228.263 390.01 242.168 387.375 245.063C386.325 248.175 385.62 250.218 384.255 253.222C382.065 258.296 379.68 263.421 378.14 268.716L291.61 268.577C280.716 268.595 260.759 268.013 250.491 268.828C248.231 264.769 246.558 260.47 244.777 256.181C242.919 253.206 241.347 250.192 240.734 246.719C238.02 244.363 230.993 231.164 230.089 226.924C229.93 226.181 230.35 225.989 230.91 225.291C232.899 223.39 231.086 223.827 233.809 222.567C236.12 223.409 236.689 223.56 239.056 223.314C241.715 224.148 243.047 224.627 245.614 225.764C247.795 226.412 259.4 229.637 260.42 230.107C267.64 231.173 274.594 233.059 281.926 234.025C311.82 237.965 334.37 236.546 363.45 230.665Z" fill="#E04725"/>
<path d="M369.5 251.759C370.93 250.944 384.72 246.06 387.375 245.063C386.325 248.175 385.62 250.218 384.255 253.222C382.065 258.296 379.68 263.421 378.14 268.716L291.611 268.577C280.716 268.595 260.759 268.013 250.491 268.828C248.231 264.769 246.559 260.47 244.777 256.181C242.92 253.206 241.347 250.192 240.734 246.719C245.608 247.966 250.389 250.383 255.398 251.797C273.465 256.912 292.136 259.579 310.91 259.727C316.605 259.784 322.01 259.591 327.68 259.225C329.955 259.078 336.54 258.092 338.32 258.18C350.225 256.544 357.95 254.755 369.5 251.759Z" fill="#4C0A0A"/>
<path d="M244.777 256.181C245.977 256.37 249.432 257.606 250.861 257.999C295.843 270.377 340.08 270.839 383.635 253.463L384.255 253.222C382.065 258.296 379.68 263.421 378.14 268.716L291.61 268.577C280.716 268.595 260.759 268.013 250.491 268.828C248.231 264.769 246.558 260.47 244.777 256.181Z" fill="#E04725"/>
<path d="M338.32 258.18C350.225 256.544 357.95 254.755 369.5 251.759C364.835 255.4 345.62 258.996 339.555 258.85L338.32 258.18Z" fill="#4C0A0A"/>
<path d="M363.45 230.665C373.245 228.546 381.17 225.929 390.36 222.21L392.99 222.573L393.585 223.384C392.675 224.07 391.85 224.674 390.915 225.319L391.47 225.821C390.855 226.226 390.625 226.508 389.995 226.604C380.27 231.42 365.76 236.774 354.92 238.189L354.445 238.318C350.27 239.167 343.205 240.458 338.915 240.678C337.26 241.426 328.68 241.934 326.68 242.027C298.055 243.347 268.301 240.207 241.674 229.145C238.542 227.844 234.2 225.819 230.911 225.291C232.899 223.39 231.086 223.827 233.809 222.567C236.12 223.409 236.689 223.56 239.057 223.314C241.716 224.148 243.047 224.627 245.615 225.764C247.796 226.412 259.401 229.637 260.421 230.107C267.641 231.173 274.594 233.059 281.927 234.025C311.82 237.965 334.37 236.546 363.45 230.665Z" fill="#4C0A0A"/>
<path d="M354.92 238.189L354.845 237.778L355.28 237.227C359.7 235.935 364.805 235.045 369.35 233.737C373.585 232.518 386.775 226.348 389.995 226.604C380.27 231.42 365.76 236.774 354.92 238.189Z" fill="#4C0A0A"/>
<path d="M363.45 230.665C373.245 228.546 381.17 225.929 390.36 222.21L392.99 222.573L393.585 223.384C388.615 222.154 369.76 233.306 363.45 230.665Z" fill="#4C0A0A"/>
<path d="M338.915 240.678C338.74 240.211 338.8 240.502 338.915 239.788C342.66 239.096 351.475 236.949 354.445 238.318C350.27 239.167 343.205 240.458 338.915 240.678Z" fill="#4C0A0A"/>
<path d="M245.615 225.764C247.796 226.412 259.401 229.638 260.421 230.108L259.956 230.49C256.799 230.432 247.209 228.531 245.615 225.764Z" fill="#4C0A0A"/>
<path d="M447 196.818C453.775 199.709 459.615 201.755 466.99 202.164C451.84 223.395 418.64 232.817 395.715 219.261C397.44 216.981 405.87 217.871 409.04 216.872C422.53 212.617 433.845 206.317 445.095 197.994C445.765 197.496 445.77 198.04 447 196.818Z" fill="#E04725"/>
<path d="M159.596 202.16C168.126 201.784 172.429 200.178 180.424 196.806C189.521 208.68 201.782 215.043 216.335 216.88C220.413 217.394 227.61 218.495 231.2 219.944C219.732 224.922 208.846 226.751 196.365 224.781C181.583 222.445 168.346 214.302 159.596 202.16Z" fill="#E04725"/>
<path d="M270.996 98.688C302.199 86.3675 324.5 86.4265 355.945 98.5115L354.645 105.203C330.44 95.8035 295.97 93.0225 272.415 105.735L270.996 98.688Z" fill="#E9E2DC"/>
<path d="M366.755 103.85C387.91 116.87 403.055 136.774 410.12 161.229C410.155 161.411 410.19 161.594 410.225 161.777C408.53 160.021 405.125 152.235 403.365 149.421C393.885 134.258 380.725 118.941 364.625 110.709L366.755 103.85Z" fill="#E9E2DC"/>
<path d="M216.744 161.228C222.473 139.49 240.418 115.248 260.197 104.38C260.991 106.214 261.809 108.864 262.475 110.81C245.743 119.699 234.517 133.104 224.075 148.535C221.712 152.028 219.448 158.242 216.744 161.228Z" fill="#E9E2DC"/>
<path d="M364.285 141.797C374.485 141.358 383.13 149.22 383.665 159.415C384.195 169.61 376.415 178.329 366.225 178.955C355.9 179.588 347.045 171.683 346.505 161.355C345.965 151.028 353.95 142.242 364.285 141.797Z" fill="#141F2C"/>
<path d="M359.525 147.128C361.28 146.343 363.32 146.562 364.865 147.702C366.415 148.841 367.23 150.725 367 152.632C366.77 154.54 365.53 156.177 363.76 156.917C361.065 158.042 357.97 156.792 356.81 154.113C355.65 151.433 356.86 148.32 359.525 147.128Z" fill="#E9E2DC"/>
<path d="M257.732 142.326C267.719 140.002 277.699 146.214 280.021 156.202C282.344 166.189 276.13 176.168 266.143 178.49C256.157 180.811 246.18 174.598 243.857 164.613C241.535 154.627 247.746 144.649 257.732 142.326Z" fill="#141F2C"/>
<path d="M263.841 146.71C266.722 146.216 269.465 148.129 269.998 151.003C270.532 153.878 268.657 156.646 265.79 157.219C263.901 157.596 261.955 156.927 260.696 155.468C259.438 154.009 259.062 151.985 259.713 150.171C260.365 148.358 261.942 147.035 263.841 146.71Z" fill="#E9E2DC"/>
<path d="M292.096 168.923C300.664 168.903 311.95 191.347 330.855 169.855C332.9 167.531 340.33 169.305 335.135 178.139C330.57 183.769 324.82 187.23 317.695 188.506C310.275 189.766 302.659 187.926 296.63 183.416C291.693 179.753 287.295 174.56 292.096 168.923Z" fill="#141F2C"/>
<path d="M461.775 281.123C469.55 279.893 492.585 280.678 501.87 280.581C522.52 280.672 543.205 280.374 563.85 280.726C569.95 280.83 570.77 282.147 572.545 287.485L572.315 462.56L463.055 462.53C447.985 462.52 424.79 461.795 410.56 462.68C436.53 449.89 452.44 429.48 457.7 401.16C458.12 398.75 458.55 396.455 458.81 394.02L493.58 394L493.535 402.465C493.515 410.065 492.195 448.905 495.765 452.335C497.965 454.45 503.46 454.865 506.365 454.95C515.57 455.21 524.84 455.04 534.05 455.045C539.845 455.045 546.09 455.525 551.805 454.7C553.34 454.475 554.25 454.07 555.36 452.955C557.145 451.15 557.8 449.295 558.15 446.815C559.355 438.33 558.57 428.925 558.56 420.315L558.49 369.015C558.355 360.71 559.15 324.165 557.75 318.825C555.585 316.22 554.13 314.365 550.54 313.985C543.515 313.385 536.23 313.535 529.16 313.635C519.155 313.78 508.865 313.365 498.92 314.09C496.08 315.88 494.435 317.425 493.955 320.89C493.145 326.765 493.425 332.825 493.44 338.76L493.55 368.645L456.98 368.46C454.005 357.295 448.84 345.205 442.03 335.83C429.375 318.74 410.96 306.805 390.19 302.24C384.22 300.93 377.295 300.575 371.15 299.62C374.375 296.715 378.44 292.04 381.605 288.74L382.71 288.185L383.91 288.55C385.9 286.525 388.415 283.45 390.33 281.24C392.92 280.553 416.795 280.967 421.535 280.994C423.195 283.195 425.985 286.67 427.385 288.885C437.815 299.22 445.625 298.385 456.515 289.365C458.255 286.93 460.16 283.705 461.775 281.123Z" fill="#535960"/>
<path d="M461.775 281.123C469.55 279.893 492.585 280.678 501.87 280.581C522.52 280.672 543.205 280.374 563.85 280.726C569.95 280.83 570.77 282.147 572.545 287.485L571.925 289.17C571.01 289.555 558.96 289.06 556.78 289.05L490.95 288.995C482.88 288.99 463.765 288.53 456.515 289.365C458.255 286.93 460.16 283.705 461.775 281.123Z" fill="#E9E2DC"/>
<path d="M561.64 304.44L562.58 304.525C566.565 304.865 567.635 304.77 571.565 304.19C572.2 310.71 571.95 321.315 571.97 328.2L572.065 368.97L558.49 369.015C558.355 360.71 559.15 324.165 557.75 318.825L559.72 319.095C561.725 317.265 561.425 307.67 561.64 304.44Z" fill="#535960"/>
<path d="M390.33 281.239C392.92 280.553 416.795 280.966 421.535 280.993C423.195 283.195 425.985 286.67 427.385 288.885C424.395 289.265 385.445 289.225 383.91 288.55C385.9 286.525 388.415 283.45 390.33 281.239Z" fill="#E9E2DC"/>
<path d="M458.81 394.02L493.58 394L493.535 402.465C488.215 402.38 460.99 402.81 457.985 402.19L457.7 401.16C458.12 398.75 458.55 396.455 458.81 394.02Z" fill="#535960"/>
<path d="M467.95 433.4C473.345 432.345 478.585 435.815 479.725 441.195C480.86 446.57 477.47 451.865 472.11 453.08C468.57 453.885 464.87 452.72 462.43 450.035C459.995 447.345 459.19 443.55 460.335 440.105C461.475 436.66 464.39 434.095 467.95 433.4Z" fill="#E9E2DC"/>
<path d="M494.535 54.7475C520.935 71.4485 533.455 95.757 531.515 127.044C529.22 147.037 522.075 163.367 505.975 176.085C495.12 184.659 481.745 190.172 467.715 188.639C449.025 186.596 431.525 169.554 431.355 150.26C436.025 136.918 446.34 131.207 457.395 123.043C480.645 105.88 490.635 82.849 494.535 54.7475Z" fill="#E04725"/>
<path d="M431.355 150.26C434.775 151.958 437.425 156.14 442.595 158.034C471.18 169.09 501.04 160.506 521.63 138.415C524.12 135.748 528.71 127.897 531.515 127.044C529.22 147.037 522.075 163.367 505.975 176.085C495.12 184.659 481.745 190.172 467.715 188.639C449.025 186.596 431.525 169.554 431.355 150.26Z" fill="#E04725"/>
<path d="M502.17 77.509C516.92 76.6075 514.82 104.335 505.56 113.078C496.965 117.171 495.625 107.797 496.06 101.483C496.565 94.1285 496.47 82.9175 502.17 77.509Z" fill="#E9E2DC"/>
<path d="M96.4125 126.285C92.6815 100.801 108.664 66.7615 131.762 54.767C136.502 84.637 144.443 104.936 169.981 123.548C179.122 130.211 193.164 138.177 195.709 150.044C196.799 158.57 191.952 168.976 186.401 175.292C179.353 183.326 169.383 188.205 158.714 188.84C144.387 189.746 129.401 182.144 119.031 172.757C105.236 160.27 97.3875 144.871 96.4125 126.285Z" fill="#E04725"/>
<path d="M96.4125 126.285C98.486 127.483 104.636 137.041 107.177 139.774C123.996 157.751 148.757 166.019 173.004 161.754C177.531 160.919 183.273 159.166 187.358 156.911C190.302 155.287 193.039 152.014 195.709 150.045C196.799 158.57 191.952 168.976 186.401 175.292C179.353 183.326 169.383 188.205 158.714 188.841C144.387 189.746 129.401 182.144 119.031 172.758C105.236 160.271 97.3875 144.871 96.4125 126.285Z" fill="#E04725"/>
<path d="M115.501 77.427C124.147 77.232 124.404 91.566 125.014 97.851C125.608 103.975 126.011 112.402 119.117 114.777C106.625 109.966 105.316 85.9925 115.501 77.427Z" fill="#E9E2DC"/>
<path d="M202.658 286.985C207.335 290.085 275.016 286.1 288.168 288.64C284.527 291.585 280.947 295.925 277.796 299.485C275.448 301.045 274.239 302.39 272.284 304.365L314.445 304.475C322.65 304.485 333.28 304.775 341.175 303.96C335.965 306.335 317.38 316.56 314.665 317.22C311 316.615 296.999 316.97 292.829 316.93C275.543 316.755 257.941 317.315 240.676 316.85C238.577 316.09 235.402 314.305 233.433 313.195C206.105 297.795 171.446 297.35 144.441 313.725C140.952 315.84 139.114 316.645 134.918 316.475C135.197 316.825 135.84 317.945 135.816 317.985C134.229 320.61 124.578 328.765 123.147 330.325C112.798 341.595 107.011 353.895 103.128 368.495L65.994 368.58L66.02 316.405C65.812 312.295 65.8225 307.635 65.734 303.475H144.431L148.46 299.115L158.695 288.92C160.698 288.375 168.89 287.455 171.76 286.985C181.421 299.305 192.682 297.615 202.658 286.985Z" fill="#E9E2DC"/>
<path d="M66.02 316.405C88.6965 316.405 112.37 316.025 134.919 316.475C135.197 316.825 135.84 317.945 135.816 317.985C134.229 320.61 124.578 328.765 123.147 330.325C112.798 341.595 107.011 353.895 103.128 368.495L65.994 368.58L66.02 316.405Z" fill="#535960"/>
<path d="M86.106 326.345C91.5615 325.885 96.353 329.94 96.805 335.4C97.257 340.855 93.198 345.64 87.742 346.09C82.291 346.54 77.509 342.485 77.0575 337.035C76.606 331.585 80.656 326.8 86.106 326.345Z" fill="#E9E2DC"/>
<path d="M585.355 283.89C591.645 286 613.37 293.375 616.665 297.76C615.47 303.2 616.47 331.475 616.47 338.275L616.485 456.99L585.355 457.015C584.685 447.72 585.27 432.57 585.28 422.775L585.22 357.105L585.13 308.8C585.115 303.24 584.75 288.785 585.355 283.89Z" fill="#535960"/>
<path d="M585.355 283.89C591.645 286 613.37 293.375 616.665 297.76L616.09 298.885C614.98 299.255 613.25 298.76 612.155 298.285C603.67 294.595 595.105 292.075 586.205 289.585C585.325 288.055 585.445 285.74 585.355 283.89Z" fill="#535960"/>
<path d="M599.715 372.48C601.235 372.74 605.13 373.735 605.53 375.56C607.42 384.235 606.935 399.72 605.875 408.705C605.69 410.26 602.545 411.64 601.43 412.185C599.56 412.175 594.715 412.045 594.505 409.475C593.625 398.68 593.26 386.19 594.8 375.49C594.97 374.33 598.745 372.845 599.715 372.48Z" fill="#141F2C"/>
<path d="M599.02 419.99C606.77 419.88 607.08 427.24 606.925 433.195C606.77 439.15 608.175 445.255 602.075 448.15C593.505 448.38 593.43 441.98 593.6 434.855C593.765 428.22 592.595 423.555 599.02 419.99Z" fill="#141F2C"/>
<path d="M597.71 307.975C607.615 306.735 607.36 317.42 606.56 324.365C606.16 327.825 605.495 329.095 602.71 331.11C601.61 331.28 600.635 331.37 599.525 331.25C598.085 331.1 596.775 330.37 595.89 329.225C593.24 325.83 593.415 319.285 593.97 315.14C594.48 311.315 594.8 310.24 597.71 307.975Z" fill="#141F2C"/>
<path d="M598.03 341.055C608.135 340.37 607.315 349.26 606.55 356.87C606.235 360.005 605.17 361.305 602.615 363.075C592.14 364.355 593.105 353.1 594.235 345.955C594.665 343.225 595.79 342.47 598.03 341.055Z" fill="#141F2C"/>
<path d="M240.675 316.85C257.94 317.315 275.542 316.755 292.829 316.93C296.998 316.97 311 316.615 314.665 317.22C313.23 320.325 306.724 326.27 304.015 329.22C297.403 336.5 292.258 344.985 288.862 354.215C280.457 376.695 281.393 400.445 291.606 422.1C300.01 439.92 314.745 455.5 333.435 462.34C321.905 462.82 308.663 462.535 297.033 462.54L232.673 462.545C261.161 444.705 277.499 422.135 276.5 387.29C275.938 367.67 269.57 346.445 256.204 331.635C251.188 326.08 245.971 321.95 240.675 316.85Z" fill="#535960"/>
<path d="M281.289 422.815C283.131 424.63 286.94 433.525 288.934 436.36C293.557 442.935 298.048 448.415 303.289 454.445C296.466 454.05 288.664 454.165 281.75 454.13C274.128 454.08 266.996 454.035 259.391 454.4C270.627 443.45 274.511 436.195 281.289 422.815Z" fill="#141F2C"/>
<path d="M65.987 393.98L101.835 394.015C102.198 396.47 102.638 400.21 103.253 402.51C109.053 430.655 127.689 449.33 152.142 462.43L65.9695 462.465L65.9215 402.47C65.9025 399.645 65.836 396.795 65.987 393.98Z" fill="#535960"/>
<path d="M65.987 393.98L101.835 394.015C102.198 396.47 102.638 400.21 103.253 402.51C90.9365 402.33 78.265 402.475 65.9215 402.47C65.9025 399.645 65.836 396.795 65.987 393.98Z" fill="#535960"/>
<path d="M86.7235 433.515C92.007 432.515 97.1295 435.885 98.3035 441.135C99.477 446.38 96.2784 451.615 91.0734 452.96C87.5484 453.875 83.8055 452.795 81.31 450.14C78.815 447.49 77.9645 443.685 79.092 440.225C80.2195 436.76 83.145 434.19 86.7235 433.515Z" fill="#E9E2DC"/>
<path d="M20.4655 287.79C18.653 286.745 15.992 284.99 15.381 282.897C17.0715 278.502 27.1675 279.5 31.2675 279.553C34.788 279.599 49.755 278.512 50.231 283.41C51.5985 297.47 50.597 312.28 50.527 326.505L50.239 411.86L50.3985 504.315C50.3825 506.4 50.267 508.28 49.5285 510.24C47.409 511.625 44.3245 511.55 42.429 509.75C41.4195 506.725 41.886 480.145 41.8665 475.695C41.5545 443.21 41.438 410.73 41.517 378.245L41.504 345.295C41.502 341.05 41.736 332.785 41.4125 328.79C40.3015 325.015 41.2565 310.775 40.845 305.495L40.1835 304.95C37.386 302.995 22.542 290.13 20.4655 287.79Z" fill="#E9E2DC"/>
<path d="M20.4655 287.79C24.31 288.005 39.3095 287.465 41.2995 288.645L41.6015 289.855L40.6895 289.285C39.5145 291.49 39.95 302.095 40.1835 304.95C37.386 302.995 22.542 290.13 20.4655 287.79Z" fill="#535960"/>
<path d="M40.1835 304.95C39.95 302.095 39.5145 291.49 40.6895 289.285L41.6015 289.855C41.254 302.715 41.8875 316.175 41.4125 328.79C40.3015 325.015 41.2565 310.775 40.845 305.495L40.1835 304.95Z" fill="#141F2C"/>
<path d="M206.786 280.565C215.381 280.086 227.986 280.453 236.944 280.458C256.847 280.27 276.752 280.44 296.649 280.967C326.44 281.551 359.34 281.226 389.205 280.92L390.33 281.24C388.415 283.45 385.9 286.525 383.91 288.55L382.71 288.185L381.605 288.74C378.44 292.04 374.375 296.715 371.15 299.62C364.335 298.99 348.505 299.465 340.995 299.45L277.796 299.485C280.947 295.925 284.527 291.585 288.167 288.64C275.016 286.1 207.335 290.085 202.657 286.985L206.786 280.565Z" fill="#E9E2DC"/>
<path d="M288.168 288.64C301.58 287.635 326.405 288.42 340.495 288.43L366.875 288.455C371.005 288.46 377.73 288.29 381.605 288.74C378.44 292.04 374.375 296.715 371.15 299.62C364.335 298.99 348.505 299.465 340.995 299.45L277.796 299.485C280.948 295.925 284.527 291.585 288.168 288.64Z" fill="#E04725"/>
<path d="M389.205 280.92L390.33 281.24C388.415 283.45 385.9 286.525 383.91 288.55L382.71 288.185C384.89 285.855 387.08 283.315 389.205 280.92Z" fill="#141F2C"/>
<path d="M126.455 472.975L442.56 472.99C440.135 475.04 437.065 477.8 434.445 479.43C422.57 480.065 407.65 479.66 395.555 479.64L329.93 479.62L126.65 479.525C127.141 476.93 126.795 475.575 126.455 472.975Z" fill="#535960"/>
<path d="M65.8475 288.76C65.8765 283.945 66.039 281.172 71.8995 281.226C83.6095 281.336 95.306 281.458 107.022 281.462L168.516 281.031L171.761 286.985C168.89 287.455 160.698 288.375 158.695 288.92L148.46 299.115C140.371 298.67 129.132 299.03 120.696 299.02L65.9855 298.98L65.8475 288.76Z" fill="#E04725"/>
<path d="M65.8475 288.76C65.8765 283.945 66.039 281.172 71.8995 281.226C83.6095 281.336 95.306 281.458 107.022 281.462L168.516 281.031L171.761 286.985C168.89 287.455 160.698 288.375 158.695 288.92C127.747 288.55 96.7965 288.495 65.8475 288.76Z" fill="#E9E2DC"/>
<path d="M391.52 267.071C396.395 251.087 404.97 231.08 425.265 235.544C433.14 237.276 438.505 240.632 443.015 247.253C445.46 250.885 446.55 252.712 448.22 256.825C450.675 262.137 452.53 280.19 445.1 282.409C435.765 285.2 427.085 268.44 423.62 261.939C423.265 260.079 416.89 250.546 414.285 252.443C406.57 258.065 400.58 263.29 391.52 267.071Z" fill="#E04725"/>
<path d="M448.22 256.825C448.235 258.549 448.38 259.405 447.725 261.015C442.485 265.727 430.865 252.873 431.16 247.158C433.42 243.063 439.585 245.829 443.015 247.253C445.46 250.885 446.55 252.712 448.22 256.825Z" fill="#E9E2DC"/>
<path d="M508.735 328.325C509.25 326.62 509.21 326.705 510.25 325.265C513.69 323.81 540.945 324.055 544.905 325.025C546.1 326.29 545.79 326.35 546.26 328.325L546.22 328.795C545.735 334.96 548.03 356.76 544.18 360.345C543.225 361.235 542.01 361.72 540.735 361.93C536.96 362.55 520.625 362.395 516.53 361.935C514.135 361.665 511.305 360.955 509.815 358.88C507.53 355.69 508.615 333.34 508.735 328.325Z" fill="#E04725"/>
<path d="M508.735 328.325C509.25 326.62 509.21 326.705 510.25 325.265C513.69 323.81 540.945 324.055 544.905 325.025C546.1 326.29 545.79 326.35 546.26 328.325C533.835 328.39 521.08 328.155 508.735 328.325Z" fill="#FDAA22"/>
<path d="M185.482 246.82C188.47 241.491 193.534 237.364 199.472 235.794C220.416 230.257 230.838 250.303 235.548 266.936C231.431 265.191 229.352 264.33 225.61 262.068C221.633 259.665 215.155 253.013 211.282 252.144C208.624 254.266 205.481 258.445 203.851 262.172C201.268 268.078 187.558 291.265 180.198 279.714C177 274.694 177.659 264.223 179.701 258.078C181.21 254.151 183.365 250.447 185.482 246.82Z" fill="#E04725"/>
<path d="M185.482 246.819C187.612 245.522 190.509 243.488 193.073 244.444C196.76 245.818 197.43 248.894 195.826 252.207C193.747 256.498 181.423 268.199 179.701 258.078C181.21 254.151 183.365 250.446 185.482 246.819Z" fill="#E9E2DC"/>
<path d="M186.95 364.795C198.259 362.42 209.342 369.7 211.646 381.025C213.95 392.35 206.593 403.385 195.254 405.615C184.02 407.825 173.108 400.55 170.826 389.33C168.543 378.11 175.746 367.15 186.95 364.795Z" fill="#E9E2DC"/>
<path d="M187.623 373.23C191.96 371.965 196.642 373.135 199.871 376.295C203.1 379.455 204.374 384.11 203.202 388.475C202.03 392.84 198.596 396.23 194.218 397.35C187.608 399.035 180.866 395.11 179.066 388.53C177.266 381.95 181.074 375.145 187.623 373.23Z" fill="#535960"/>
<path d="M370.45 364.375C381.85 363.575 391.76 372.105 392.665 383.495C393.565 394.885 385.125 404.875 373.745 405.88C362.22 406.905 352.07 398.33 351.15 386.79C350.235 375.25 358.905 365.18 370.45 364.375Z" fill="#E9E2DC"/>
<path d="M359.765 382.515C361.21 375.86 367.74 371.61 374.41 372.985C381.08 374.36 385.395 380.845 384.09 387.53C383.23 391.91 380.085 395.495 375.85 396.915C371.62 398.34 366.945 397.375 363.62 394.395C360.295 391.415 358.82 386.88 359.765 382.515Z" fill="#535960"/>
<path d="M359.765 382.515C361.21 375.86 367.74 371.61 374.41 372.985C381.08 374.36 385.395 380.845 384.09 387.53C382.865 382.345 383.595 377.785 377.735 374.725C374.665 373.16 371.08 372.97 367.865 374.2C363.89 375.705 362.25 378.135 360.72 381.86L360.46 382.505L359.765 382.515Z" fill="#141F2C"/>
<path d="M508.745 383.04C509.22 379.665 509.8 376.885 513.865 376.81C523.48 376.63 533.895 376.065 543.385 377.56C546.215 378.005 546.195 381.42 546.3 383.61C546.425 389.395 547.23 398.625 544.88 403.56C542.02 406.645 529.345 405.4 525.39 405.64C522.32 405.82 511.695 405.705 509.885 403.55C507.77 401.03 508.515 386.45 508.745 383.04Z" fill="#E9E2DC"/>
<path d="M508.745 383.04C509.22 379.665 509.8 376.885 513.865 376.81C523.48 376.63 533.895 376.065 543.385 377.56C546.215 378.005 546.195 381.42 546.3 383.61C537.865 382.755 518.15 383.235 508.745 383.04Z" fill="#E9E2DC"/>
<path d="M508.325 425.195C508.565 423.135 509.22 420.125 511.71 419.575C516.405 418.955 523.285 418.29 528.005 418.825C534.9 419.61 544.725 416.14 547.04 423.95C546.91 427.33 548.01 443.385 545.595 444.645C540.115 447.505 513.425 447.42 509.32 444.305C507.305 440.05 508.16 430.21 508.325 425.195Z" fill="#E9E2DC"/>
<path d="M508.325 425.195C508.565 423.135 509.22 420.125 511.71 419.575C516.405 418.955 523.285 418.29 528.005 418.825C534.9 419.61 544.725 416.14 547.04 423.95C546.24 425.135 546.4 425.5 545.065 425.58C533.98 426.245 521.105 426.415 510.085 425.26C509.18 425.17 509.335 425.105 508.325 425.195Z" fill="#E9E2DC"/>
<path d="M291.335 490.575C305.961 490.375 320.59 490.72 335.215 490.525C338.2 490.485 341.29 490.215 344.22 490.915C344.52 496.92 344.215 502.505 343.98 508.505L333.035 508.475C326.005 508.515 318.98 508.5 311.955 508.42L302.132 508.43L296.018 508.475L286.535 508.46C286.474 502.495 286.493 496.535 286.594 490.575H291.335Z" fill="#E04725"/>
<path d="M333 490.98C336.81 490.85 340.4 490.875 344.22 490.915C344.52 496.92 344.215 502.505 343.98 508.505L333.035 508.475L333 490.98Z" fill="#FDAA22"/>
<path d="M286.594 490.575H291.335C293.051 490.745 294.51 490.65 295.858 491.525C296.138 497.11 296.035 502.87 296.018 508.475L286.535 508.46C286.474 502.495 286.493 496.535 286.594 490.575Z" fill="#FDAA22"/>
<path d="M302.333 490.875C305.523 490.87 308.733 490.83 311.92 490.98C311.81 496.45 311.53 503.04 311.955 508.42L302.132 508.43L302.333 490.875Z" fill="#FDAA22"/>
<path d="M318.185 490.975C320.715 490.885 325.785 490.19 327.43 492.005L328.605 492.4C329.355 494.595 329.725 504.77 328.34 506.83C327.235 505.795 327.475 505.09 327.135 503.21C327.24 504.955 327.575 506.255 326.635 507.635C324.48 508.855 320.775 508.23 318 508.11L318.185 490.975Z" fill="#FDAA22"/>
<path d="M327.43 492.005L328.605 492.4C329.355 494.595 329.725 504.77 328.34 506.83C327.235 505.795 327.475 505.09 327.135 503.21C327.01 500.09 326.895 494.97 327.43 492.005Z" fill="#E04725"/>
<path d="M456.23 67.8775C457.235 68.92 456.36 74.4385 456.33 76.5255C456.18 86.252 457.235 94.1915 459.375 103.612C453.15 112.087 438.11 121.947 429.385 131.129L428.455 131.837L427.85 131.613C427.255 129.313 427.455 126.852 427.67 124.492C430.085 98.5 436.655 84.3485 456.23 67.8775Z" fill="#E04725"/>
<path d="M169.379 68.2025C172.428 69.9855 176.621 73.636 179.039 76.209C194.694 92.8665 199.352 109.439 199.031 131.542L198.559 131.989L197.642 131.173C187.801 120.702 176.613 114.44 167.002 103.056C170.323 89.6065 170.588 81.9155 169.379 68.2025Z" fill="#E04725"/>
<path d="M241.707 334.99C245.548 335.545 253.121 347.125 255.291 350.465C239.15 350.245 229.819 352.73 216.766 362.2L211.77 366.27L206.753 361.79C206.917 361.445 207.084 361.1 207.258 360.76C214.125 347.355 227.805 339.37 241.707 334.99Z" fill="#535960"/>
<path d="M423.235 334.965L424.465 335.065C428.135 337.325 433.69 346.13 436.21 349.945C419.525 350.95 411.505 351.885 397.825 362.015L393.895 365.765C391.435 364.305 390.345 363.4 388.185 361.625C394.57 347.645 409.395 339.715 423.235 334.965Z" fill="#535960"/>
<path d="M296.836 393.03C312.555 399.63 327.195 399.045 343.095 393.83C343.915 395.41 344.73 397.455 345.45 399.115L339.755 402.635C325.1 410.97 317.47 411.785 301.177 411.465C298.479 405.175 297.364 399.78 296.836 393.03Z" fill="#535960"/>
<path d="M162.663 393.86C163.413 395.37 164.153 397.2 164.835 398.765C162.721 400.35 160.516 401.57 158.244 402.91C146.977 410.46 133.588 412.31 120.387 410.915C117.854 404.12 116.981 400.995 115.969 393.83C132.278 399.165 146.368 398.815 162.663 393.86Z" fill="#535960"/>
<path d="M244.487 490.585L254.384 490.55L263.869 490.605C263.894 496.335 263.767 502.81 263.96 508.47L254.026 508.475L244.989 508.515C241.129 508.555 237.269 508.56 233.409 508.53C233.04 503.01 233.308 496.185 233.381 490.565L244.487 490.585Z" fill="#FDAA22"/>
<path d="M233.381 490.565L244.487 490.585C245.239 492.59 244.883 505.51 244.989 508.515C241.129 508.555 237.269 508.56 233.409 508.53C233.04 503.01 233.308 496.185 233.381 490.565Z" fill="#FDAA22"/>
<path d="M244.487 490.585L254.384 490.55C253.533 492.62 253.969 505.415 254.026 508.475L244.989 508.515C244.883 505.51 245.239 492.59 244.487 490.585Z" fill="#E04725"/>
<path d="M391.005 406.995C400.455 415.38 405.665 434.605 408.06 446.555C405.125 448.17 402.67 449.385 399.63 450.8C397.485 451.765 394.27 452.775 391.98 453.57C392.35 436.14 392.31 427.535 384.9 411.32C386.96 410.06 389.045 408.435 391.005 406.995Z" fill="#535960"/>
<path d="M210.226 407.435L211.006 407.745C219.432 417.84 225.122 433.95 227.438 446.755C224.043 449.015 222.873 449.65 219.126 451.275C216.226 452.47 214.511 452.775 211.495 453.425C211.819 437.07 211.308 426.39 203.931 411.475L210.226 407.435Z" fill="#535960"/>
<path d="M456.515 234.141C465.905 236.228 474.21 244.558 478.045 253.15C481.455 260.782 479.46 264.158 472.11 267.004C470.225 267.504 465.03 268.821 464.235 266.294C460.505 254.415 457.275 245.632 448.815 236.086C451.54 235.218 453.745 234.744 456.515 234.141Z" fill="#E04725"/>
<path d="M173.021 234.487C174.679 234.377 178.186 234.956 179.976 235.194C170.405 248.038 168.706 252.888 164.731 268.046C161.233 268.03 160.084 268.109 156.674 267.25C149.541 264.139 147.09 260.716 150.983 253.15C155.577 244.264 163.499 237.555 173.021 234.487Z" fill="#E04725"/>
<path d="M276.337 490.52C279.756 490.56 283.175 490.58 286.593 490.575C286.493 496.535 286.473 502.495 286.534 508.46H280.008L270.481 508.495L263.96 508.47C263.767 502.81 263.893 496.335 263.868 490.605L270.572 490.58L276.337 490.52Z" fill="#FDAA22"/>
<path d="M276.338 490.52C279.756 490.56 283.175 490.58 286.594 490.575C286.493 496.535 286.474 502.495 286.535 508.46H280.009C280.024 502.805 280.081 497.175 279.869 491.525C278.888 490.65 277.901 490.78 276.338 490.52Z" fill="#E04725"/>
<path d="M263.868 490.605L270.572 490.58C270.467 496.55 270.437 502.52 270.481 508.495L263.96 508.47C263.767 502.81 263.893 496.335 263.868 490.605Z" fill="#E04725"/>
<path d="M66.042 472.98L126.455 472.975C126.795 475.575 127.141 476.93 126.65 479.525C106.694 479.86 86.0305 479.535 66.024 479.48L66.042 472.98Z" fill="#535960"/>
<path d="M182.749 490.625C187.422 490.505 191.877 490.58 196.543 490.665C196.624 491.37 196.689 492.075 196.737 492.78C196.93 495.48 197.238 507.37 195.868 508.97L181.534 508.905C181.458 504.65 180.66 493.345 182.749 490.625Z" fill="#FDAA22"/>
<path d="M132.72 490.655C137.194 490.435 142.39 490.54 146.92 490.525C146.997 493.71 147.574 506.98 146.35 508.875L132.073 508.885C131.923 505.345 131.066 493.04 132.72 490.655Z" fill="#FDAA22"/>
<path d="M157.194 490.575C161.888 490.46 166.584 490.5 171.275 490.69C171.545 496.595 171.724 503.02 171.168 508.9C166.173 508.945 161.529 509.03 156.53 508.69C156.475 503.725 156.178 494.995 157.194 490.575Z" fill="#FDAA22"/>
<path d="M207.396 490.54C212.266 490.52 217.136 490.555 222.006 490.64C222.045 495.965 222.218 503.695 221.547 508.805C216.751 508.93 211.969 508.82 207.173 508.75C206.928 503.4 206.937 495.815 207.396 490.54Z" fill="#FDAA22"/>
<path d="M104.375 495.535C108.319 495.425 112.06 495.52 116.006 495.61C116.079 504.585 114.188 510.945 120.254 517.8L120.029 518.41L121.23 519.245L121.354 520.21L120.308 520.39L121.407 521.89C122.845 521.915 122.34 521.985 123.684 521.515C123.909 521.605 124.131 521.7 124.358 521.78C126.056 522.37 206.353 523.135 213.644 522.37C212.257 522.275 207.336 522.03 206.266 521.765C222.954 520.93 251.018 521.235 268.11 521.915C265.361 521.935 239.525 521.87 238.678 522.335C240.602 523.41 260.007 522.8 263.746 522.78C267.055 522.76 272.745 521.33 276.723 522.28L276.57 522.4L280.819 522.36L280.062 522.215C284.559 521.87 288.043 521.745 292.637 520.9C297.191 520.535 300.916 521.495 305.61 521.21C316.97 520.515 328.9 521.445 340.355 521.325C344.375 521.285 347.175 519.635 350.725 521.73C352.195 521.775 352.935 521.205 354.245 520.515L354.93 520.84C356.34 521.495 357.305 522.22 358.725 521.91C359.605 520.99 360.3 520.21 361.305 519.41L361.39 518.97C361.745 518.38 362.895 517.51 363.445 516.955C367.71 512.625 367.04 508.065 367.045 502.45L367.345 504.21L367.945 504.54L367.875 505.065C368.55 504.13 368.97 503.21 370.225 503.105C381.38 502.19 400.605 503.1 410.975 503.045C437.615 502.905 584.725 505.54 599.285 515.39C600.14 516.865 599.94 516.085 599.86 517.83C598.645 519.67 597.275 520.565 595.1 521.07C578.96 524.83 562.415 526.38 545.945 527.965C522.885 530.335 499.765 532.04 476.605 533.075C408.705 536.91 340.69 538.405 272.686 537.56L274.706 536.905L274.787 536.54C272.949 535.775 264.956 535.78 263.346 536.735C265.63 536.875 267.059 536.965 269.305 537.4L269.788 537.495C263.885 537.89 253.351 537.585 247.07 537.57C226.791 537.535 206.516 536.97 186.266 535.865C174.04 535.245 161.15 535.15 148.902 534.455C120.489 532.905 92.1205 530.62 63.825 527.605C63.994 526.765 64.4825 520.5 64.4555 519.555C67.335 514.91 67.048 513.45 67.3045 508.02C74.8585 507.705 95.628 509.535 101.699 505.495C103.95 503.995 104.127 498.345 104.375 495.535Z" fill="#535960"/>
<path d="M120.254 517.8C124.6 519.315 127.097 519.64 131.728 519.7C151.356 519.95 171.139 519.895 190.764 519.925L295.163 519.975L335.115 519.96C342.51 519.965 354.675 520.425 361.39 518.97L361.305 519.41C360.3 520.21 359.605 520.99 358.725 521.91C357.305 522.22 356.34 521.495 354.93 520.84L354.245 520.515C352.935 521.205 352.195 521.775 350.725 521.73C347.175 519.635 344.375 521.285 340.355 521.325C328.9 521.445 316.97 520.515 305.61 521.21C300.916 521.495 297.191 520.535 292.637 520.9C288.043 521.745 284.559 521.87 280.062 522.215L280.819 522.36L276.569 522.4L276.723 522.28C272.745 521.33 267.055 522.76 263.746 522.78C260.007 522.8 240.601 523.41 238.677 522.335C239.524 521.87 265.361 521.935 268.109 521.915C251.017 521.235 222.954 520.93 206.266 521.765C207.336 522.03 212.257 522.275 213.644 522.37C206.353 523.135 126.056 522.37 124.358 521.78C124.131 521.7 123.909 521.605 123.684 521.515C122.34 521.985 122.845 521.915 121.406 521.89L120.308 520.39L121.354 520.21L121.229 519.245L120.029 518.41L120.254 517.8Z" fill="#535960"/>
<path d="M64.4555 519.555C64.4825 520.5 63.994 526.765 63.825 527.605C61.832 527.595 59.827 527.455 58.1245 526.435C57.454 525.025 57.6345 524.97 57.878 523.37C61.077 522.02 61.7595 521.735 64.4555 519.555Z" fill="#535960"/>
<path d="M269.788 537.495L269.305 537.4C267.059 536.965 265.63 536.875 263.346 536.735C264.956 535.78 272.948 535.775 274.786 536.54L274.706 536.905L272.685 537.56L269.788 537.495Z" fill="#535960"/>
</g>
<defs>
<clipPath id="clip0_144967_14893">
<rect width="634" height="538" fill="white"/>
</clipPath>
</defs>
</svg>
